<svg version="1.2" xmlns="http://www.w3.org/2000/svg" viewBox="0 0 1200 848" width="1200" height="848">
	<style>
		.s0 { fill: #1d1d1b } 
		.s1 { fill: #9e9d98 } 
		.s2 { fill: #dbdfe4 } 
		.s3 { fill: #7f7e7a } 
		.s4 { fill: #ffffff } 
		.s5 { fill: #373738 } 
		.s6 { fill: #6a6a6c } 
		.s7 { fill: #464749 } 
		.s8 { fill: #58585a } 
		.s9 { fill: #f2dd07 } 
		.s10 { fill: #3bbce9 } 
		.s11 { fill: #e86972 } 
		.s12 { fill: #71b85a } 
	</style>
	<g id="Layer 1">
		<path id="Path 0" class="s0" d="m373.85 1.15c0.08 0.47-1.09 0.86-2.6 0.86-1.51 0.01-7.48 0.93-13.25 2.04-5.78 1.11-16.8 3.6-24.5 5.54-7.7 1.94-19.63 5.35-26.5 7.59-6.88 2.24-12.93 4.46-13.45 4.94-0.52 0.49-1.53 0.88-2.25 0.88-0.71 0-4.79 1.61-9.05 3.58-4.26 1.97-11.8 5.59-16.75 8.05-4.95 2.45-10.8 5.56-13 6.91-2.2 1.34-4.68 2.75-5.5 3.12-0.83 0.38-4.2 2.58-7.5 4.89-3.3 2.32-8.48 6.87-11.5 10.11-3.03 3.23-8.43 10.17-12 15.41-3.58 5.24-7.13 10.63-7.91 11.98-0.78 1.35-2.3 4.03-3.38 5.95-1.09 1.92-3.52 6.42-5.41 10-1.88 3.58-5.09 8.11-7.11 10.08-2.03 1.96-4.82 4.89-6.2 6.5-1.39 1.6-4.57 5.84-7.07 9.42-2.5 3.57-6.94 11-9.88 16.5-2.93 5.5-7.24 13.37-9.57 17.5-2.34 4.12-6.94 13.12-10.23 20-3.29 6.87-8.51 17.79-11.61 24.25-3.1 6.46-5.63 11.97-5.63 12.25 0 0.28-2.19 5.11-4.87 10.75-2.68 5.64-5.2 11.37-5.61 12.75-0.41 1.37-1.59 4.07-2.62 6-1.03 1.93-3.7 8-5.94 13.5-2.23 5.5-5.64 14.05-7.57 19-1.93 4.95-4.09 10.35-4.8 12-0.71 1.65-1.86 4.57-2.55 6.5-0.69 1.93-2.38 6.43-3.76 10-1.37 3.57-3.09 8.07-3.81 10-0.72 1.93-2.24 5.98-3.37 9-1.14 3.02-5.04 13.82-8.68 24-3.63 10.18-10.77 31.1-15.86 46.5-5.1 15.4-11.29 34.3-13.77 42-2.49 7.7-5.23 16.48-6.1 19.5-0.88 3.02-3.24 11.12-5.26 18-2.02 6.87-4.69 15.87-5.93 20-1.24 4.12-2.82 9.52-3.51 12-0.69 2.48-1.64 5.85-2.1 7.5-0.46 1.65-1.49 5.25-2.29 8-0.79 2.75-2.17 8.15-3.05 12-0.88 3.85-2.03 8.8-2.55 11-0.52 2.2-2.07 9.85-3.45 17-1.38 7.15-3.17 17.73-3.98 23.5-0.8 5.77-1.77 13.65-2.13 17.5-0.36 3.85-0.86 8.35-1.1 10-0.25 1.65-0.64 14.92-0.87 29.5-0.24 14.58-0.02 28.98 0.48 32 0.5 3.02 1.13 7.98 1.41 11 0.28 3.02 1.01 8.65 1.64 12.5 0.62 3.85 1.79 10.15 2.61 14 0.82 3.85 2.63 11.05 4.04 16 1.4 4.95 3.7 12.37 5.11 16.5 1.4 4.12 4.23 11.1 6.29 15.5 2.06 4.4 6.09 12.05 8.96 17 2.86 4.95 6.17 10.19 7.35 11.65 1.18 1.46 3.24 4.16 4.59 6 1.35 1.84 6.98 7.86 12.5 13.36 6.2 6.18 13.88 12.54 20.05 16.6 5.5 3.61 13.6 8.2 18 10.19 4.4 2 10.47 4.34 13.5 5.21 3.02 0.88 6.17 1.85 7 2.17 0.82 0.31 6.34 0.63 12.25 0.7 5.91 0.06 10.75-0.22 10.75-0.63 0-0.41 1.46-0.97 3.25-1.25 1.79-0.27 5.5-1.68 8.25-3.12 2.75-1.45 7.02-4.26 9.49-6.26 2.48-1.99 7.39-6.32 10.93-9.62 3.54-3.3 13.93-13.42 23.1-22.5 9.17-9.08 21.57-21.86 27.57-28.4 6-6.55 11.38-12.4 11.96-13 0.58-0.61 4.4-4.93 8.48-9.6 4.09-4.67 7.89-9 8.45-9.61 0.56-0.61 3.77-4.21 7.13-8 3.36-3.79 7.41-8.47 8.99-10.39 1.59-1.92 3.34-3.99 3.89-4.59 0.56-0.6 3.26-3.71 6.01-6.91 2.75-3.19 6.05-6.98 7.34-8.41 1.29-1.42 4.06-4.61 6.17-7.09 2.1-2.48 4.64-5.46 5.65-6.62 1.01-1.17 4.09-4.76 6.84-7.98 2.75-3.22 8.15-9.46 12-13.88 3.84-4.41 8.12-9.31 9.5-10.88 1.37-1.57 3.4-3.86 4.5-5.08 1.1-1.22 5.37-6.01 9.5-10.64 4.12-4.63 12.67-13.61 19-19.95 10.21-10.25 12.51-12.01 20.5-15.83 4.95-2.36 12.37-5.13 16.5-6.16 4.12-1.02 9.52-2.1 12-2.39 2.47-0.29 11.47-1.21 20-2.05 8.52-0.83 17.52-1.72 20-1.96 2.47-0.25 12.6-0.82 22.5-1.27 9.9-0.44 66.6-0.81 126-0.81 59.4 0 113.62 0.18 120.5 0.39 6.87 0.22 19.92 0.98 29 1.7 9.08 0.72 19.42 1.58 23 1.9 3.58 0.33 8.52 0.84 11 1.13 2.47 0.29 5.62 0.71 7 0.94 1.37 0.24 4.52 0.69 7 1.02 2.47 0.33 7.87 1.72 12 3.09 4.12 1.37 10.42 4.13 14 6.12 4.16 2.32 10.1 7.23 16.51 13.67 5.5 5.52 13.37 13.83 17.5 18.47 4.12 4.64 8.39 9.42 9.49 10.63 1.1 1.2 4.47 5.04 7.5 8.53 3.02 3.48 7.3 8.37 9.5 10.87 2.2 2.5 4.24 4.77 4.54 5.04 0.29 0.27 5.92 6.8 12.5 14.5 6.58 7.7 14.07 16.48 16.64 19.5 2.58 3.02 5.88 6.85 7.34 8.5 1.46 1.65 4.52 5.24 6.82 7.97 2.29 2.73 6.41 7.48 9.16 10.55 2.75 3.08 7.54 8.49 10.65 12.04 3.11 3.54 6.93 7.82 8.5 9.5 1.57 1.68 6.22 6.83 10.35 11.45 4.12 4.61 16.72 17.66 28 28.99 11.27 11.34 24.1 24 28.5 28.15 4.4 4.15 10.25 9.09 13 10.99 2.75 1.9 7.36 4.45 10.25 5.66 2.89 1.21 5.92 2.2 6.75 2.2 0.83 0 1.5 0.34 1.5 0.75 0 0.41 4.95 0.75 11 0.75 6.05 0 11-0.34 11-0.75 0-0.41 0.79-0.75 1.75-0.74 0.96 0.01 5.58-1.3 10.25-2.9 4.67-1.59 12.78-5.25 18-8.12 5.22-2.87 10.69-6.18 12.15-7.35 1.46-1.18 4.16-3.26 6-4.64 1.84-1.37 7.01-6.09 11.49-10.5 4.47-4.4 11.28-12.27 15.13-17.5 3.85-5.23 9.5-14.23 12.57-20 3.06-5.77 6.97-13.87 8.69-18 1.71-4.12 3.72-9.3 4.46-11.5 0.74-2.2 2.24-7.15 3.33-11 1.09-3.85 2.25-8.35 2.57-10 0.33-1.65 1.07-5.25 1.65-8 0.57-2.75 1.68-8.6 2.45-13 0.78-4.4 1.65-10.02 1.94-12.5 0.3-2.48 1.01-9 1.59-14.5 0.58-5.5 0.97-17.42 0.88-26.5-0.09-9.08-0.53-20.55-0.98-25.5-0.44-4.95-1.08-12.15-1.43-16-0.34-3.85-0.85-8.8-1.12-11-0.28-2.2-1.39-9.4-2.48-16-1.09-6.6-2.37-14.25-2.85-17-0.48-2.75-2.02-9.95-3.43-16-1.41-6.05-3.25-13.7-4.1-17-0.85-3.3-2.26-8.48-3.13-11.5-0.87-3.02-2.2-7.75-2.96-10.5-0.75-2.75-2.53-9.05-3.94-14-1.42-4.95-3.49-12.15-4.61-16-1.12-3.85-2.64-8.8-3.36-11-0.73-2.2-2.22-6.93-3.3-10.5-1.09-3.57-3.87-12.57-6.17-20-2.31-7.43-7.73-24.07-12.06-37-4.33-12.93-9.48-28.23-11.45-34-1.97-5.77-4.21-12.07-4.99-14-0.79-1.93-4.21-11.15-7.61-20.5-3.4-9.35-7.73-21.05-9.62-26-1.9-4.95-4.38-11.25-5.52-14-1.14-2.75-3.32-8.37-4.86-12.5-1.53-4.12-4.43-11.32-6.43-16-2.01-4.68-4.78-11.2-6.16-14.5-1.38-3.3-3.1-7.35-3.82-9-0.72-1.65-2.31-5.25-3.53-8-1.22-2.75-3.36-7.47-4.76-10.5-1.4-3.03-6.69-14.28-11.76-25-5.07-10.72-11.53-23.78-14.37-29-2.83-5.22-5.14-9.61-5.12-9.75 0.01-0.14-3.19-5.99-7.12-13-3.93-7.01-8.99-15.22-11.25-18.25-2.26-3.02-5.69-7.28-7.61-9.46-1.92-2.19-4.63-5.15-6-6.59-1.38-1.44-4.48-6.4-6.9-11.03-2.43-4.63-5.61-10.22-7.09-12.42-1.47-2.2-2.92-4.67-3.22-5.5-0.3-0.83-3.38-5.33-6.85-10-3.46-4.67-8.58-10.92-11.37-13.87-2.79-2.96-7.99-7.27-11.57-9.59-3.58-2.32-9.2-5.76-12.5-7.65-3.3-1.9-11.29-6.02-17.75-9.17-6.46-3.14-11.98-5.72-12.25-5.72-0.28 0-1.96-0.63-3.75-1.4-1.79-0.77-6.85-2.74-11.25-4.37-4.4-1.63-11.83-4.13-16.5-5.55-4.67-1.42-11.2-3.29-14.5-4.15-3.3-0.86-10.95-2.65-17-3.97-6.05-1.32-14.15-2.93-18-3.57-3.85-0.65-7.67-1.51-8.5-1.9-0.83-0.39-6.45-0.84-12.5-1-9.51-0.25-11.57 0-15.25 1.81-2.34 1.16-9.99 7.72-17 14.58-7.01 6.86-13.88 14.11-15.25 16.11l-2.5 3.63c-22.48-1.08-31.25-1.54-34-1.73-2.75-0.18-25.7-0.69-51-1.12-25.3-0.43-68.95-0.81-97-0.83-28.05-0.02-65.63 0.33-83.5 0.78-17.88 0.45-34.75 0.98-37.5 1.16-2.75 0.19-9.84 0.61-15.75 0.93l-10.75 0.59c-3.39-5.04-7.56-9.82-11.44-13.87-3.88-4.05-10.03-9.9-13.66-13-3.63-3.1-7.46-6.35-8.5-7.22-1.52-1.28-4.46-1.6-14.8-1.6-7.1-0.01-12.83 0.37-12.75 0.84z"/>
		<path id="Path 1" class="s1" d="m531 592.75c5.77 0.17 15.67 0.17 22 0 6.33-0.18 1.6-0.32-10.5-0.32-12.1 0-17.27 0.14-11.5 0.32zm127-0.01c3.58 0.2 8.98 0.19 12 0 3.02-0.2 0.1-0.36-6.5-0.36-6.6 0-9.08 0.17-5.5 0.36zm-455.03 207.01l-6.47 6.75c10.48-10.08 13.51-13.11 13.51-13.25-0.01-0.14-0.14-0.25-0.29-0.25-0.15 0-3.19 3.04-6.75 6.75z"/>
		<path id="Path 2" class="s2" d="m595 592.74c3.02 0.2 8.2 0.2 11.5 0 3.3-0.2 0.83-0.36-5.5-0.36-6.33 0-9.02 0.16-6 0.36z"/>
		<path id="Path 3" class="s3" d="m1000 803.5c3.58 3.59 6.73 6.52 7 6.52 0.27 0-2.29-2.93-5.69-6.51-3.41-3.58-6.56-6.51-7-6.52-0.45 0 2.11 2.92 5.69 6.51z"/>
		<path id="Path 4" class="s4" d="m0 424v424l121.5-0.17c-12.4-3.78-19.83-6.77-24.5-9.1-4.67-2.32-11.42-6.22-15-8.67-3.58-2.45-9.65-7.01-13.5-10.12-3.85-3.11-9.48-8.38-12.5-11.71-3.02-3.33-6.17-6.89-7-7.92-0.83-1.02-3.36-4.55-5.62-7.84-2.27-3.28-6.37-10.02-9.11-14.97-2.74-4.95-6.67-12.83-8.73-17.5-2.07-4.67-4.4-10.52-5.19-13-0.79-2.48-2.34-7.65-3.43-11.5-1.09-3.85-2.22-8.13-2.5-9.5-0.28-1.38-0.92-4.08-1.42-6-0.5-1.92-1.84-8.67-2.96-15-1.13-6.33-2.33-14.65-2.66-18.5-0.33-3.85-0.96-9.25-1.39-12-0.44-2.75-0.61-14.9-0.38-27 0.22-12.1 0.58-23.35 0.78-25 0.21-1.65 0.71-6.6 1.12-11 0.41-4.4 0.84-8.67 0.95-9.5 0.12-0.83 0.54-3.98 0.95-7 0.4-3.02 1.63-10.9 2.71-17.5 1.09-6.6 2.18-13.13 2.42-14.5 0.25-1.38 0.67-3.63 0.95-5 0.27-1.38 0.72-3.63 1-5 0.28-1.38 0.72-3.17 0.97-4 0.25-0.83 0.68-2.63 0.95-4 0.27-1.38 0.74-3.51 1.04-4.75 0.3-1.24 0.78-3.15 1.05-4.25 0.27-1.1 0.71-2.79 0.97-3.75 0.26-0.96 0.9-3.33 1.41-5.25 0.52-1.92 2.56-9.13 4.54-16 1.98-6.88 4.1-14.3 4.72-16.5 0.61-2.2 1.7-5.8 2.4-8 0.71-2.2 2.24-7.15 3.4-11 1.16-3.85 2.29-7.9 2.51-9 0.22-1.1 1.11-3.91 1.97-6.25 0.87-2.34 1.58-4.48 1.58-4.75 0-0.27 1.43-5.11 3.17-10.75 1.74-5.64 8.45-26 14.9-45.25 6.45-19.25 13.74-40.63 16.2-47.5 2.45-6.88 4.73-13.18 5.06-14 0.33-0.82 2.21-6 4.18-11.5 1.98-5.5 4.02-10.79 4.54-11.75 0.52-0.96 0.94-2.54 0.93-3.5-0.01-0.96 0.41-2.2 0.92-2.75 0.51-0.55 3.85-8.65 7.42-18 3.57-9.35 7.27-18.8 8.22-21 0.96-2.2 2.12-5.01 2.6-6.25 0.47-1.24 1.27-3.26 1.78-4.5 0.51-1.24 2.31-5.29 4-9 1.69-3.71 3.09-7.09 3.11-7.5 0.02-0.41 1.31-3.45 2.87-6.75 1.56-3.3 4.08-8.7 5.59-12 1.51-3.3 4.32-9.38 6.26-13.5 1.93-4.13 8.55-17.63 14.72-30 6.16-12.38 13.34-26.32 15.94-31 2.61-4.68 5.41-9.63 6.23-11 0.82-1.38 1.68-3.29 1.92-4.25 0.24-0.96 0.89-1.75 1.44-1.75 0.55 0 1-0.68 1-1.5 0-0.82 0.34-1.61 0.75-1.75 0.41-0.14 3.44-3.63 6.74-7.75 3.29-4.13 7.11-8.47 8.5-9.65 1.38-1.18 4.46-5.9 6.85-10.5 2.38-4.59 6.55-11.84 9.25-16.1 2.7-4.26 4.91-8.2 4.91-8.75 0-0.55 0.36-1.11 0.81-1.25 0.44-0.14 2.2-2.28 3.9-4.75 1.7-2.47 5.53-7.2 8.52-10.5 3.01-3.33 9.61-8.73 14.85-12.15 5.18-3.38 13.69-8.41 18.92-11.16 5.23-2.76 15.35-7.45 22.5-10.44 7.15-2.98 15.48-6.33 18.5-7.42 3.02-1.1 8.88-3.03 13-4.28 4.13-1.26 8.18-2.5 9-2.77 0.82-0.26 5.1-1.37 9.5-2.46 4.4-1.08 8.9-2.17 10-2.4 1.1-0.24 8.3-1.6 16-3.02 7.7-1.43 14.19-2.77 14.42-3 0.23-0.22-83.81-0.4-186.75-0.4h-187.17zm399.96-423.75c-0.02 0.14 1.66 1.43 3.75 2.87 2.08 1.43 7.39 5.99 11.79 10.12 4.4 4.13 10.7 10.75 14 14.72l6 7.22c20.15-1.01 30.5-1.49 36-1.72 5.5-0.23 18.1-0.67 28-0.97 9.9-0.31 44.33-0.56 76.5-0.57 32.17-0.01 70.42 0.23 85 0.54 14.58 0.3 37.3 0.78 50.5 1.07 13.2 0.29 28.5 0.73 34 0.98 5.5 0.26 11.58 0.72 13.5 1.03 2.62 0.42 4 0.08 5.5-1.34 1.1-1.05 4.25-4.51 7-7.7 2.75-3.19 7.45-8.1 10.44-10.9 3-2.81 6.6-6.19 8-7.52 1.41-1.34 4.27-3.59 6.35-5 2.09-1.42 3.77-2.69 3.75-2.83-0.02-0.14-90.04-0.25-200.04-0.25-110 0-200.02 0.11-200.04 0.25zm428.54 0.73c1.65 0.44 8.17 1.76 14.5 2.94 6.33 1.17 12.4 2.33 13.5 2.57 1.1 0.24 4.92 1.16 8.5 2.06 3.58 0.89 6.95 1.74 7.5 1.88 0.55 0.14 2.35 0.62 4 1.06 1.65 0.44 8.62 2.69 15.5 5 6.87 2.31 14.3 4.95 16.5 5.88 2.2 0.92 4.22 1.66 4.5 1.64 0.27-0.02 1.79 0.54 3.37 1.23 1.57 0.69 8.77 4.21 16 7.83 7.22 3.61 17.4 9.2 22.63 12.42 5.3 3.27 12.38 8.78 16 12.45 3.58 3.62 9.42 10.85 12.99 16.07 3.58 5.22 7.33 11.07 8.35 12.99 1.02 1.93 2.42 4.4 3.12 5.5 0.7 1.1 2.83 4.93 4.72 8.5 1.89 3.58 4.54 7.65 5.88 9.05 1.34 1.4 4.21 4.55 6.38 7 2.17 2.45 6.83 8.73 10.36 13.95 3.52 5.22 6.75 10.4 7.16 11.5 0.42 1.1 2.69 5.38 5.04 9.5 2.35 4.13 8.88 16.72 14.51 28 5.64 11.28 12.37 25 14.96 30.5 2.6 5.5 5.54 11.8 6.53 14 0.99 2.2 3.43 7.82 5.43 12.5 2 4.68 4.47 10.3 5.49 12.5 1.01 2.2 2.58 5.69 3.46 7.75 0.89 2.06 1.63 4.09 1.64 4.5 0.01 0.41 1.21 3.23 2.65 6.25 1.45 3.02 2.99 6.4 3.42 7.5 0.43 1.1 1.1 3.13 1.48 4.5 0.38 1.38 1.48 4.3 2.45 6.5 0.97 2.2 3.45 8.5 5.5 14 2.06 5.5 4.14 10.45 4.63 11 0.48 0.55 0.88 1.56 0.87 2.25-0.01 0.69 0.61 2.71 1.38 4.5 0.77 1.79 1.87 4.6 2.44 6.25 0.56 1.65 2.2 6.15 3.64 10 1.43 3.85 3.31 9.25 4.17 12 0.86 2.75 1.84 5.45 2.18 6 0.34 0.55 2.05 5.27 3.79 10.5 1.75 5.23 7.32 21.65 12.38 36.5 5.06 14.85 9.38 28.01 9.6 29.25 0.22 1.24 1.46 5.29 2.76 9 1.3 3.71 3.54 10.57 4.97 15.25 1.43 4.68 4.46 14.57 6.71 22 2.26 7.43 4.53 14.96 5.04 16.75 0.5 1.79 1.37 4.82 1.92 6.75 0.55 1.93 1.46 5.19 2.03 7.25 0.56 2.06 1.19 4.43 1.39 5.25 0.2 0.83 0.89 3.3 1.54 5.5 0.65 2.2 2.08 7.38 3.18 11.5 1.11 4.13 2.39 9.3 2.85 11.5 0.46 2.2 1.6 6.92 2.52 10.5 0.93 3.58 1.87 7.4 2.1 8.5 0.23 1.1 0.6 3.13 0.83 4.5 0.24 1.38 1.35 8.13 2.48 15 1.13 6.88 2.26 14.08 2.52 16 0.26 1.92 0.75 6.88 1.08 11 0.34 4.13 0.77 7.95 0.95 8.5 0.19 0.55 0.71 6.4 1.15 13 0.44 6.6 0.8 18.75 0.8 27 0 8.25-0.33 18.6-0.74 23-0.41 4.4-0.94 8.9-1.17 10-0.23 1.1-0.64 4.02-0.91 6.5-0.28 2.48-0.95 6.98-1.5 10-0.55 3.02-1.24 7.08-1.53 9-0.3 1.92-0.72 4.4-0.96 5.5-0.23 1.1-1.86 7.63-3.63 14.5-1.76 6.88-4.57 15.88-6.23 20-1.67 4.13-5.19 11.77-7.82 17-2.62 5.23-5.37 10.65-6.1 12.04-0.73 1.4-4.34 6.8-8.03 12-3.68 5.21-9.98 12.85-14 17-4.01 4.15-9.55 9.44-12.3 11.76-2.75 2.31-5.45 4.57-6 5.01-0.55 0.44-4.6 2.99-9 5.66-4.4 2.67-10.47 5.98-13.5 7.34-3.03 1.37-9.33 3.74-14 5.27l-8.5 2.78 121.5 0.14v-848c-290.24 0.14-373.15 0.54-371.5 0.98zm-266 591.63c-1.1 0.17-23.6 0.51-50 0.75-26.4 0.24-50.7 0.71-54 1.03-3.3 0.33-8.93 0.84-12.5 1.14-3.58 0.31-8.98 0.78-12 1.06-3.03 0.28-7.3 0.69-9.5 0.91-2.2 0.23-6.48 0.68-9.5 1-3.03 0.32-6.18 0.78-7 1.01-0.83 0.23-3.08 0.68-5 1-1.93 0.32-5.3 1.03-7.5 1.58-2.2 0.54-4.9 1.34-6 1.77-1.1 0.43-4.68 2.1-7.95 3.71-3.27 1.61-6.42 3.39-7 3.95-0.58 0.56-3.3 2.65-6.05 4.65-2.75 1.99-7.48 6.47-10.5 9.96-3.03 3.48-6.18 7.05-7 7.94-0.83 0.88-4.2 4.51-7.5 8.05-3.3 3.55-8.76 9.58-12.13 13.41-3.37 3.84-7.42 8.53-9 10.44-1.58 1.91-3.55 4.2-4.37 5.08-0.83 0.88-2.42 2.7-3.54 4.03-1.12 1.33-4.05 4.7-6.5 7.48-2.45 2.78-6.26 7.21-8.46 9.85-2.2 2.63-4.9 5.79-6 7.03-1.1 1.24-4.93 5.55-8.5 9.58-3.58 4.03-7.4 8.48-8.5 9.89-1.1 1.41-2.68 3.28-3.5 4.14-0.83 0.87-3.38 3.8-5.69 6.51-2.3 2.72-5.61 6.52-7.35 8.44-1.74 1.92-5.25 5.94-7.81 8.93-2.56 2.99-5.55 6.38-6.65 7.54-1.1 1.16-5.15 5.66-9 9.99-3.85 4.34-11.27 12.42-16.49 17.97-5.21 5.54-12.64 13.23-16.5 17.1-3.85 3.87-13.09 12.83-20.51 19.91-7.43 7.08-15.75 14.65-18.5 16.83-2.75 2.18-7.7 5.32-11 6.97-3.3 1.65-6.9 3.18-8 3.4-1.1 0.22-2.19 0.62-2.42 0.88-0.23 0.27 205.42 0.45 457 0.41 331.72-0.05 456.73-0.37 454.92-1.16-1.38-0.6-5.2-2.25-8.5-3.67-3.3-1.42-6.86-3.26-7.91-4.09-1.05-0.83-5.54-4.66-9.98-8.51-4.45-3.85-17.99-16.93-30.1-29.06-12.1-12.13-25.16-25.61-29.01-29.95-3.85-4.34-8.86-9.93-11.13-12.44-2.27-2.5-5.2-5.73-6.5-7.18-1.3-1.44-4.85-5.46-7.87-8.92-3.03-3.46-6.4-7.3-7.5-8.53-1.1-1.22-3.8-4.37-6-6.99-2.2-2.62-7.1-8.4-10.89-12.84-3.8-4.45-7.62-8.82-8.5-9.7-0.89-0.89-3.41-3.78-5.61-6.43-2.2-2.65-4.9-5.81-6-7.04-1.1-1.23-3.8-4.38-6-7-2.2-2.62-8.89-10.43-14.87-17.34-5.98-6.92-11.61-13.3-12.5-14.18-0.9-0.88-4.78-5.14-8.63-9.46-3.85-4.32-9.25-10.27-12-13.21-2.75-2.95-5.28-5.89-5.62-6.54-0.34-0.66-4.16-4.05-8.5-7.55-4.33-3.5-11.03-7.84-14.88-9.64-3.85-1.81-9.25-3.79-12-4.42-2.75-0.62-6.13-1.34-7.5-1.59-1.38-0.25-3.63-0.67-5-0.93-1.38-0.27-4.98-0.75-8-1.08-3.03-0.33-6.17-0.76-7-0.97-0.83-0.2-6-0.67-11.5-1.03-5.5-0.37-10.23-0.8-10.5-0.96-0.28-0.16-5.9-0.58-12.5-0.93-6.6-0.35-17.17-0.84-23.5-1.1-6.33-0.25-43.67-0.62-83-0.82-39.33-0.2-72.4-0.23-73.5-0.06z"/>
		<path id="Path 5" class="s1" d="m562 41.75c5.77 0.17 15.67 0.17 22 0 6.33-0.18 1.6-0.32-10.5-0.32-12.1 0-17.27 0.14-11.5 0.32z"/>
		<path id="Path 6" class="s3" d="m379.75 8.61c-0.14 0.16-1.82 0.52-3.75 0.81-1.93 0.3-5.42 0.88-7.77 1.31-2.34 0.42-4.14 1.02-4 1.33 0.15 0.31 6.34 6.42 13.77 13.57 12.54 12.07 13.75 12.98 17 12.74 1.93-0.14 7.1-0.58 11.5-0.99 4.4-0.4 10.14-0.76 12.75-0.8 2.61-0.04 4.76-0.53 4.77-1.08 0.02-0.55-4.6-5.62-10.25-11.26-5.65-5.64-12.01-11.49-14.15-13-3.4-2.4-4.84-2.75-11.75-2.82-4.33-0.05-7.99 0.04-8.12 0.19zm421.75 1.81c-3.9 2.45-3.93 2.52-1.25 2.55 1.51 0.02 10.74 1.62 20.5 3.56 9.76 1.94 23.6 5.14 30.75 7.11 7.15 1.97 19.3 5.8 27 8.52 7.7 2.73 19.74 6.95 26.75 9.4 7.01 2.44 13.31 4.14 14 3.78 0.7-0.37 0.91-0.26 0.47 0.25-0.43 0.51 3.11 2.74 8 5.04 5.48 2.57 11.01 6.15 14.7 9.5 3.25 2.95 8.54 8.41 11.75 12.12 3.2 3.71 5.94 6.68 6.08 6.6 0.14-0.08 1.26 0.15 2.5 0.5 1.24 0.36 2.25 1.1 2.25 1.65 0 0.55 0.45 0.78 1 0.5 0.55-0.28 0.99-0.16 0.99 0.25-0.01 0.41 1.56 1.31 3.5 2 1.93 0.69 4.09 1.81 4.81 2.5 0.71 0.69 3.19 2.26 5.5 3.5 2.31 1.24 3.9 1.69 3.53 1-0.37-0.69-2.4-3.84-4.5-7-2.11-3.16-3.83-5.97-3.83-6.25 0-0.28-0.56-1.16-1.25-1.96-0.69-0.81-4.4-5.04-8.25-9.42-3.85-4.38-7.34-8-7.75-8.04-0.41-0.04-3.34-1.77-6.5-3.83-3.16-2.06-5.98-4.02-6.25-4.36-0.27-0.34-1.51-0.91-2.75-1.26-1.24-0.34-2.81-1.21-3.5-1.91-0.69-0.7-5.3-3.26-10.25-5.67-4.95-2.42-9.23-4.44-9.5-4.5-0.27-0.05-3.87-1.52-8-3.25-4.12-1.74-8.85-3.71-10.5-4.39-1.65-0.68-3.34-1.39-3.75-1.58-0.41-0.18-0.98-0.33-1.25-0.33-0.27 0-0.84-0.13-1.25-0.29-0.41-0.16-2.55-0.87-4.75-1.58-2.2-0.7-4.67-1.55-5.5-1.87-0.83-0.32-1.73-0.65-2-0.73-0.27-0.08-2.08-0.51-4-0.95-1.92-0.45-4.08-1.32-4.79-1.95-0.72-0.62-1.28-0.79-1.25-0.38 0.02 0.41-4.12-0.39-9.21-1.78-5.09-1.4-10.15-2.75-11.25-3.01-1.1-0.27-3.35-0.74-5-1.06-1.65-0.31-3.9-0.73-5-0.93-1.1-0.19-3.46-0.6-5.25-0.91-1.79-0.31-4.71-0.81-6.5-1.11-1.79-0.3-4.6-0.74-6.25-0.97-1.65-0.23-6.6-0.68-11-1-7.36-0.54-8.32-0.38-12 1.94z"/>
		<path id="Path 7" class="s5" d="m998.99 789.25c0 0.14 3.48 3.63 7.75 7.75l7.76 7.5c-11.16-12.01-14.65-15.5-14.95-15.5-0.3 0-0.55 0.11-0.56 0.25z"/>
		<path id="Path 8" class="s4" d="m498 42.27c-0.27 0.27-9.95 0.79-21.5 1.15-11.55 0.37-27.75 1.11-36 1.65-8.25 0.54-17.93 1.21-21.5 1.5-3.57 0.28-8.75 0.71-11.5 0.94-2.75 0.23-8.15 0.68-12 1-3.85 0.32-11.5 1.03-17 1.58-5.5 0.56-12.7 1.44-16 1.96-3.3 0.52-7.35 1.18-9 1.45-1.65 0.28-4.57 0.77-6.5 1.1-1.93 0.33-4.63 0.79-6 1.02-1.38 0.23-4.75 0.89-7.5 1.48-2.75 0.58-6.13 1.27-7.5 1.54-1.38 0.26-4.3 0.91-6.5 1.45-2.2 0.53-4.79 1.18-5.75 1.44-0.96 0.26-2.76 0.7-4 0.98-1.24 0.28-3.6 0.95-5.25 1.49-1.65 0.54-9.3 3.04-17 5.56-7.7 2.52-15.35 5.19-17 5.92-1.65 0.73-5.02 2.16-7.5 3.18-2.48 1.01-10.8 4.93-18.5 8.71-7.7 3.77-17.82 9.4-22.49 12.5-4.67 3.09-12.99 9.99-18.5 15.32-5.51 5.33-12.1 12.53-14.65 16-2.55 3.47-6.11 9.01-7.92 12.31-1.8 3.3-4.32 7.8-5.6 10-1.27 2.2-8.73 16.85-16.58 32.55-7.84 15.71-15.48 31.23-16.97 34.5-1.49 3.27-4.48 9.77-6.64 14.45-2.16 4.68-5.12 11.43-6.58 15-1.46 3.57-3.14 7.62-3.73 9-0.59 1.37-1.47 3.29-1.96 4.25-0.48 0.96-0.88 2.2-0.88 2.75 0 0.55-1.56 4.26-3.47 8.25-1.91 3.99-3.49 7.81-3.5 8.5-0.02 0.69-0.44 2.04-0.95 3-0.5 0.96-1.56 3.32-2.35 5.25-0.78 1.93-2 5.07-2.7 7-0.69 1.93-1.84 4.85-2.54 6.5-0.69 1.65-4.31 11.1-8.03 21-3.71 9.9-8.98 24.3-11.7 32-2.71 7.7-9.85 28.85-15.87 47-6.01 18.15-12.24 37.05-13.84 42-1.6 4.95-4.08 12.82-5.5 17.5-1.43 4.68-2.79 9.4-3.03 10.5-0.24 1.1-2.04 7.4-4 14-1.96 6.6-4.06 13.8-4.66 16-0.6 2.2-1.5 5.12-1.99 6.5-0.49 1.37-1.09 3.4-1.32 4.5-0.24 1.1-1.58 5.71-2.99 10.25-1.41 4.54-2.57 8.59-2.59 9-0.01 0.41-0.44 2.33-0.95 4.25-0.52 1.92-1.21 5.08-1.55 7-0.34 1.92-0.77 3.73-0.95 4-0.18 0.27-0.59 2.08-0.91 4-0.32 1.92-0.81 4.62-1.09 6-0.28 1.37-0.73 3.62-1.01 5-0.28 1.37-0.71 3.17-0.94 4-0.24 0.83-0.69 3.52-1.01 6-0.31 2.48-0.78 5.62-1.04 7-0.27 1.37-0.71 3.62-0.98 5-0.27 1.37-0.73 4.75-1.02 7.5-0.3 2.75-0.75 6.58-1.01 8.5-0.26 1.92-1 8.67-1.64 15-0.64 6.33-1.19 21.4-1.22 33.5-0.03 12.6 0.51 26.27 1.25 32 0.72 5.5 1.48 10.9 1.7 12 0.22 1.1 0.66 4.02 0.98 6.5 0.31 2.48 1.25 7.42 2.07 11 0.83 3.58 1.71 7.62 1.96 9 0.24 1.37 0.71 3.17 1.03 4 0.33 0.83 0.95 2.85 1.39 4.5 0.44 1.65 1.54 5.7 2.44 9 0.91 3.3 2.24 7.35 2.96 9 0.73 1.65 2.77 6.37 4.55 10.5 1.78 4.12 4.09 8.74 5.13 10.25 1.04 1.51 1.87 3.09 1.85 3.5-0.02 0.41 2.63 4.8 5.88 9.75 3.26 4.95 7.21 10.57 8.79 12.48 1.58 1.92 6.69 7.24 11.37 11.83 4.67 4.58 12.55 11.04 17.5 14.33 4.95 3.3 12.15 7.53 16 9.39 3.85 1.87 10.6 4.32 15 5.45 4.4 1.12 10.93 2.03 14.5 2.01 3.57-0.02 8.3-0.47 10.5-0.99 2.2-0.53 6.7-2.62 10-4.65 3.3-2.03 10.05-7.38 15-11.9 4.95-4.52 15.53-14.69 23.5-22.61 7.97-7.92 16.97-17.09 20-20.39 3.03-3.29 10.06-10.93 15.64-16.97 5.57-6.04 11.42-12.56 13-14.48 1.57-1.92 3.58-4.17 4.46-5 0.88-0.83 4.03-4.42 7-7.99 2.97-3.57 5.89-6.94 6.48-7.5 0.59-0.56 3.52-3.91 6.5-7.45 2.98-3.54 6.1-7.16 6.92-8.04 0.82-0.89 3.52-4 6-6.93 2.48-2.92 4.98-5.83 5.56-6.45 0.59-0.63 3.06-3.42 5.5-6.2 2.44-2.78 6.24-7.23 8.44-9.88 2.2-2.65 4.48-5.32 5.06-5.94 0.59-0.61 3.06-3.41 5.5-6.2 2.44-2.8 5.36-6.18 6.48-7.5 1.12-1.33 4.22-4.9 6.87-7.92 2.66-3.02 6.46-7.33 8.46-9.57 2-2.24 7.23-8.03 11.63-12.87 4.4-4.84 10.93-11.8 14.5-15.46 3.57-3.67 9.43-8.66 13-11.08 3.57-2.42 9.43-5.73 13-7.35 3.57-1.62 9.2-3.59 12.5-4.39 3.3-0.79 7.12-1.63 8.5-1.86 1.37-0.23 4.07-0.69 6-1.02 1.93-0.33 4.62-0.74 6-0.91 1.37-0.18 4.98-0.57 8-0.88 3.02-0.31 8.09-0.8 11.25-1.09 3.16-0.28 8.11-0.73 11-0.98 2.89-0.25 9.3-0.69 14.25-0.99 4.95-0.29 13.73-0.79 19.5-1.11 5.77-0.32 60.67-0.57 122-0.55 61.33 0.01 115.55 0.25 120.5 0.52 4.95 0.27 13.73 0.78 19.5 1.12 5.77 0.34 12.75 0.8 15.5 1.03 2.75 0.22 7.25 0.64 10 0.92 2.75 0.28 7.7 0.75 11 1.04 3.3 0.29 10.05 1.18 15 1.97 4.95 0.78 12.04 2.12 15.75 2.97 3.71 0.85 7.54 1.94 8.5 2.42 0.96 0.49 3.1 1.49 4.75 2.23 1.65 0.74 6.15 3.43 10 5.99 3.85 2.55 10.88 8.64 15.62 13.52 4.74 4.88 10.82 11.32 13.5 14.29 2.68 2.98 6.97 7.71 9.52 10.5 2.54 2.8 8.35 9.36 12.9 14.59 4.55 5.23 8.54 9.73 8.86 10 0.33 0.27 2.23 2.52 4.23 5 2 2.48 4.7 5.65 6 7.06 1.3 1.41 4.01 4.56 6.02 7 2.01 2.44 4.93 5.87 6.5 7.62 1.57 1.75 4.87 5.55 7.35 8.44 2.48 2.89 5.4 6.25 6.5 7.47 1.1 1.22 3.8 4.37 6 7 2.2 2.63 7.57 8.86 11.93 13.85 4.36 4.98 8.41 9.56 9 10.17 0.59 0.6 3.77 4.19 7.07 7.97 3.3 3.77 8.48 9.55 11.5 12.83 3.02 3.29 8.42 9.15 11.99 13.03 3.57 3.88 13.25 13.81 21.51 22.06 8.26 8.25 19.52 19.22 25.01 24.38 5.49 5.16 11.79 10.43 13.99 11.71 2.2 1.28 6.7 3.25 10 4.38 3.88 1.33 8.47 2.05 13 2.03 3.85-0.02 9.7-0.74 13-1.6 3.3-0.86 7.35-2.17 9-2.9 1.65-0.74 5.25-2.31 8-3.49 2.75-1.19 8.15-4.25 12-6.79 3.85-2.54 10.11-7.12 13.91-10.17 3.79-3.05 9.77-8.92 13.28-13.05 3.51-4.12 6.73-7.95 7.16-8.5 0.42-0.55 1.63-2.35 2.69-4 1.05-1.65 2.19-3.23 2.54-3.5 0.34-0.27 1.81-2.52 3.26-5 1.45-2.48 5.33-9.9 8.62-16.5 3.3-6.6 6-12.67 6-13.5 0-0.83 0.41-1.95 0.9-2.5 0.5-0.55 1.4-2.58 2.02-4.5 0.62-1.92 1.34-4.4 1.59-5.5 0.26-1.1 0.95-3.8 1.53-6 0.58-2.2 1.27-4.9 1.53-6 0.26-1.1 0.68-2.67 0.94-3.5 0.25-0.83 0.69-2.85 0.98-4.5 0.29-1.65 0.77-4.12 1.06-5.5 0.29-1.37 1.18-6.33 1.97-11 0.8-4.67 1.69-10.52 1.97-13 0.28-2.48 0.84-8.1 1.25-12.5 0.4-4.4 0.72-14.08 0.71-21.5-0.01-7.42-0.34-18.45-0.73-24.5-0.39-6.05-0.88-12.35-1.1-14-0.22-1.65-0.69-6.15-1.04-10-0.35-3.85-1.56-13.08-2.68-20.5-1.12-7.42-2.18-13.73-2.36-14-0.18-0.27-0.61-2.52-0.96-5-0.35-2.48-0.84-5.17-1.09-6-0.25-0.83-0.7-2.62-1-4-0.3-1.37-0.74-3.4-0.97-4.5-0.23-1.1-1.81-7.4-3.51-14-1.7-6.6-3.83-14.48-4.72-17.5-0.89-3.02-1.7-5.95-1.8-6.5-0.1-0.55-0.94-3.7-1.86-7-0.93-3.3-2.83-9.82-4.24-14.5-1.41-4.68-3.91-13-5.55-18.5-1.65-5.5-3.95-12.93-5.1-16.5-1.15-3.57-2.16-6.95-2.25-7.5-0.08-0.55-1.54-5.27-3.24-10.5-1.7-5.23-6.78-20.52-11.28-34-4.51-13.48-9.89-29.45-11.98-35.5-2.08-6.05-5.58-15.95-7.78-22-2.19-6.05-4.71-13.02-5.59-15.5-0.88-2.48-1.99-5.4-2.48-6.5-0.49-1.1-1.68-4.25-2.64-7-0.96-2.75-2.52-6.8-3.47-9-0.94-2.2-3.41-8.5-5.48-14-2.08-5.5-4.42-11.57-5.21-13.5-0.78-1.93-2.3-5.3-3.37-7.5-1.06-2.2-1.95-4.45-1.96-5-0.01-0.55-2.04-5.73-4.51-11.5-2.47-5.78-5.33-12.3-6.37-14.5-1.03-2.2-2.78-6.03-3.88-8.5-1.11-2.47-3.7-8.32-5.76-13-2.07-4.68-9.54-19.97-16.61-34-7.07-14.03-14.13-27.75-15.68-30.5-1.56-2.75-4.53-8.15-6.61-12-2.08-3.85-5.62-9.47-7.85-12.5-2.24-3.03-7.95-9.32-12.68-14-4.74-4.67-10.39-9.93-12.57-11.68-2.17-1.75-7.1-5.25-10.95-7.79-3.85-2.53-13.52-7.77-21.5-11.64-7.98-3.86-15.4-7.52-16.5-8.13-1.1-0.6-5.6-2.42-10-4.02-4.4-1.61-13.17-4.66-19.5-6.78-6.33-2.11-16-4.97-21.5-6.36-5.5-1.38-11.13-2.72-12.5-2.97-1.38-0.25-4.52-0.92-7-1.49-2.48-0.57-7.42-1.48-11-2.04-3.58-0.55-8.75-1.26-11.5-1.56-2.75-0.31-6.58-0.76-8.5-1.02-1.92-0.25-5.75-0.72-8.5-1.03-2.75-0.31-6.8-0.78-9-1.05-2.2-0.26-6.48-0.7-9.5-0.98-3.02-0.27-7.52-0.7-10-0.94-2.48-0.25-7.2-0.68-10.5-0.95-3.3-0.27-9.6-0.76-14-1.08-4.4-0.32-10.48-0.76-13.5-0.98-3.02-0.21-11.35-0.66-18.5-0.99-7.15-0.33-19.52-0.82-27.5-1.1-7.98-0.28-59.95-0.76-115.5-1.08-55.55-0.31-101.23-0.34-101.5-0.07z"/>
		<path id="Path 9" class="s6" d="m379.5 28c6.05 6.06 11.23 11.01 11.5 11.01 0.27 0-4.32-4.95-10.22-11-5.89-6.06-11.07-11.01-11.5-11.02-0.43 0 4.17 4.95 10.22 11.01z"/>
		<path id="Path 10" class="s7" d="m357.91 12.25c-2.43 0.47-10.71 2.37-18.41 4.22-7.7 1.85-19.18 5.03-25.5 7.07-6.33 2.03-16 5.49-21.5 7.67-5.5 2.18-14.5 6.16-20 8.84-5.5 2.68-14.73 7.67-20.5 11.08-6.72 3.97-12.85 8.57-17.03 12.78-3.59 3.63-9.66 11.22-13.5 16.87-3.83 5.65-6.63 10.49-6.22 10.75 0.41 0.26 3.34-1.19 6.5-3.22 3.16-2.03 13.4-7.38 22.75-11.88 9.35-4.5 24.87-10.98 34.5-14.4 9.62-3.43 24.25-7.94 32.5-10.03 8.25-2.09 21.52-4.98 29.5-6.42 7.97-1.44 20.35-3.31 27.5-4.15 7.15-0.84 14.94-1.85 17.3-2.23l4.3-0.7-27.78-27.11zm428.14 11.68c-5.93 6.04-10.84 11.34-10.92 11.78-0.07 0.43 7.18 1.38 16.12 2.11 8.94 0.72 25.48 2.41 36.75 3.75 11.28 1.34 26.13 3.37 33 4.52 6.88 1.14 19.25 3.8 27.5 5.9 8.25 2.1 23.55 6.94 34 10.76 10.45 3.83 22.49 8.6 26.75 10.6 7.02 3.31 7.61 3.44 6.23 1.4-0.84-1.23-4.55-5.35-8.25-9.14-3.7-3.79-8.98-8.34-11.73-10.11-2.75-1.77-8.15-4.6-12-6.29-3.85-1.69-14.2-5.61-23-8.72-8.8-3.12-21.62-7.58-28.5-9.93-6.87-2.35-18.8-5.88-26.5-7.86-7.7-1.97-19.85-4.69-27-6.03-7.15-1.35-14.95-2.74-17.33-3.09l-4.33-0.63z"/>
		<path id="Path 11" class="s0" d="m587.5 68.13c-2.2 0.51-7.34 2.6-11.43 4.65-4.65 2.32-9.72 5.97-13.53 9.72-3.36 3.3-7.24 8.03-8.63 10.5-1.4 2.47-3.55 7.2-4.78 10.5-1.42 3.79-2.45 9.32-2.8 15-0.43 6.99-0.13 10.67 1.37 16.5 1.05 4.13 3.52 10.43 5.48 14 2.23 4.05 6.17 8.91 10.45 12.88 4.2 3.91 9.59 7.68 13.87 9.72 4.36 2.07 10.02 3.78 15 4.52 6.17 0.92 9.94 0.92 16.5 0.01 5.99-0.84 10.71-2.26 16-4.83 5.49-2.67 9.44-5.61 14.75-10.97 5.29-5.34 8.17-9.29 10.63-14.58 1.86-3.99 3.95-10.4 4.64-14.25 0.71-3.98 1.02-10.24 0.72-14.5-0.34-4.68-1.58-10.13-3.28-14.5-1.51-3.85-4.36-9.22-6.35-11.94-1.98-2.72-4.76-6.1-6.17-7.5-1.41-1.41-4.33-3.94-6.5-5.62-2.17-1.69-6.42-4.25-9.44-5.7-3.02-1.45-7.52-3.09-10-3.66-2.48-0.57-8.55-1-13.5-0.96-4.95 0.05-10.8 0.5-13 1.01zm309 48.51c-1.1 0.29-4.02 1.21-6.5 2.03-2.48 0.83-6.75 3.01-9.5 4.84-2.75 1.83-6.69 5.17-8.75 7.41-2.06 2.24-5.07 6.44-6.68 9.33-1.61 2.89-3.44 7.5-4.08 10.25-0.63 2.75-1.17 7.25-1.2 10-0.03 3.89-0.22 4.44-0.82 2.5-0.74-2.39-0.77-2.4-0.87-0.25-0.06 1.24 0.24 2.42 0.65 2.64 0.41 0.21 1.03 2.35 1.38 4.75 0.35 2.4 1.68 7.06 2.95 10.36 1.28 3.3 4.39 8.47 6.92 11.5 2.52 3.03 6.6 6.85 9.05 8.5 2.45 1.65 5.57 3.53 6.95 4.18 1.37 0.65 4.98 1.94 8 2.88 4.15 1.29 7.71 1.59 14.5 1.21 6.32-0.35 10.64-1.19 14.5-2.83 3.02-1.29 7.75-3.98 10.5-5.98 2.75-2 6.37-5.18 8.05-7.05 1.67-1.88 4.44-6.34 6.14-9.91 1.71-3.57 3.64-9.87 4.3-14 0.93-5.78 0.93-8.99 0.02-14-0.64-3.57-2.35-8.97-3.8-12-1.44-3.02-4.66-7.94-7.16-10.92-2.5-2.98-6.35-6.57-8.55-7.98-2.2-1.42-6.48-3.64-9.5-4.94-4.19-1.81-7.76-2.45-15-2.71-5.23-0.18-10.4-0.1-11.5 0.19zm-597 26.93c-1.1 0.26-5.15 1.19-9 2.07-3.85 0.87-10.33 3.23-14.41 5.22-4.07 2-10.82 6.58-15 10.18-4.17 3.6-9.92 9.9-12.77 14-2.85 4.1-6.56 11.06-8.24 15.46-1.68 4.4-3.5 10.03-4.04 12.5-0.54 2.48-0.82 9.9-0.63 16.5 0.25 8.35 0.99 14.13 2.43 19 1.14 3.85 3.48 9.7 5.2 13 1.73 3.3 4.86 8.25 6.97 11 2.11 2.75 6.01 7.05 8.66 9.55 2.66 2.51 7.08 6.09 9.83 7.96 2.75 1.87 8.37 4.83 12.5 6.56 4.12 1.74 9.75 3.65 12.5 4.25 2.75 0.59 10.62 0.95 17.5 0.79 6.87-0.16 13.4-0.57 14.5-0.92 1.1-0.35 3.8-1.08 6-1.62 2.2-0.55 6.92-2.48 10.48-4.28 3.57-1.81 9.64-5.79 13.5-8.85 3.86-3.06 8.84-7.79 11.07-10.5 2.23-2.72 5.46-7.19 7.18-9.94 1.71-2.75 4.05-7.47 5.19-10.5 1.13-3.02 2.8-9.1 3.7-13.5 1.18-5.82 1.47-10.72 1.05-18-0.32-5.5-1.43-12.93-2.46-16.5-1.04-3.57-3.4-9.43-5.26-13-1.85-3.57-5.24-8.97-7.52-12-2.28-3.02-6.57-7.65-9.54-10.27-2.96-2.63-8.54-6.53-12.39-8.68-3.85-2.15-10.6-5.09-15-6.53-6.06-1.98-10.67-2.71-19-3.02-6.05-0.23-11.9-0.19-13 0.07zm513 55.53c-2.2 0.49-6.88 2.36-10.39 4.15-3.52 1.79-8.48 5.28-11.02 7.75-2.53 2.47-5.53 5.85-6.65 7.5-1.13 1.65-2.87 4.8-3.87 7-1.01 2.2-2.38 6.93-3.05 10.5-0.67 3.57-1.05 8.75-0.85 11.5 0.2 2.75 0.89 7.03 1.53 9.5 0.65 2.48 2.43 6.98 3.98 10 1.54 3.02 5.22 7.98 8.18 11 3.27 3.34 8.07 6.84 12.26 8.92 4.52 2.24 9.45 3.77 14.38 4.45 5.48 0.75 9.32 0.7 14.25-0.17 3.71-0.66 9.56-2.5 13-4.08 3.44-1.58 8.28-4.84 10.77-7.25 2.48-2.4 5.63-5.94 6.99-7.87 1.36-1.93 3.28-5.07 4.26-7 0.98-1.93 2.42-6.2 3.19-9.5 0.78-3.35 1.23-9.09 1.02-13-0.2-3.85-1.01-9.03-1.79-11.5-0.78-2.47-2.45-6.53-3.7-9-1.25-2.47-4.91-7.09-8.13-10.25-3.22-3.16-8.22-6.94-11.11-8.4-2.89-1.46-7.5-3.25-10.25-3.99-2.75-0.73-8.15-1.3-12-1.25-3.85 0.05-8.8 0.49-11 0.99zm167.5 0.05c-3.02 0.5-8.65 2.47-12.5 4.36-4.03 1.99-9.26 5.69-12.33 8.72-3.23 3.19-6.68 8.03-8.75 12.27-2.91 5.93-3.52 8.45-4.05 16.5-0.49 7.53-0.24 10.85 1.19 16 0.99 3.57 2.29 7.4 2.89 8.5 0.6 1.1 1.96 3.35 3.02 5 1.07 1.65 3.99 5.07 6.49 7.59 2.5 2.53 6.56 5.75 9.04 7.16 2.48 1.41 6.75 3.31 9.5 4.23 3.04 1 8.34 1.67 13.5 1.69 5.95 0.02 10.45-0.59 15-2.06 3.58-1.14 7.68-2.88 9.12-3.85 1.44-0.97 4.36-3.35 6.5-5.29 2.13-1.94 5.28-5.32 6.98-7.5 1.71-2.18 4.35-7.12 5.87-10.97 1.67-4.25 2.95-9.75 3.25-14 0.34-4.81-0.04-9.03-1.21-13.5-0.94-3.57-2.51-8.07-3.49-10-0.99-1.93-3.64-5.86-5.9-8.75-2.27-2.89-6.03-6.47-8.37-7.95-2.34-1.49-5.83-3.54-7.75-4.55-1.92-1.01-6.54-2.5-10.25-3.3-3.71-0.8-7.99-1.4-9.5-1.33-1.51 0.06-5.23 0.53-8.25 1.03zm-479 2.07c-3.02 1.27-7.52 3.79-10 5.61-2.48 1.82-5.96 5.53-7.75 8.24-1.79 2.71-4.03 6.84-4.99 9.18-1.22 2.97-1.75 7-1.75 13.37-0.01 8.68 0.19 9.51 3.99 16.97 3.17 6.22 5.25 8.85 10 12.65 3.51 2.8 8.28 5.51 11.5 6.52 3.38 1.05 8.59 1.7 13.5 1.67 6.01-0.04 9.49-0.65 14-2.45 4.03-1.6 7.86-4.21 11.66-7.93 3.42-3.36 6.77-7.92 8.47-11.55 2.17-4.62 2.9-7.84 3.18-14 0.21-4.57-0.17-9.93-0.89-12.5-0.69-2.47-2.76-6.86-4.59-9.75-1.83-2.89-5.02-6.8-7.08-8.7-2.06-1.89-6.23-4.66-9.25-6.15-4.53-2.24-7.17-2.79-15-3.1-8.2-0.33-10.25-0.07-15 1.92zm171-0.02c-3.02 1.14-7.3 3.46-9.5 5.14-2.2 1.68-4.68 3.75-5.52 4.6-0.83 0.86-2.95 3.81-4.7 6.56-1.75 2.75-3.71 7.48-4.35 10.5-0.64 3.03-0.98 8.65-0.76 12.5 0.27 4.76 1.22 8.76 2.96 12.5 1.41 3.02 4.61 7.75 7.11 10.5 2.84 3.12 7.12 6.29 11.4 8.44 5.67 2.84 8.16 3.49 14.36 3.73 5.43 0.21 9.16-0.25 13.5-1.69 3.3-1.09 8.23-3.44 10.96-5.23 2.74-1.79 6.56-5.35 8.5-7.92 1.95-2.56 4.35-6.84 5.33-9.5 0.99-2.65 2.06-7.53 2.37-10.83q0.58-6-1.06-12.5c-0.95-3.76-3.21-8.81-5.37-11.96-2.05-3.01-5.98-7.16-8.73-9.22-2.75-2.07-7.36-4.67-10.25-5.79-3.73-1.44-7.5-2.01-13-1.98-5.34 0.04-9.46 0.71-13.25 2.15zm220 81.7c-3.02 0.98-7.3 2.8-9.5 4.03-2.2 1.23-6.37 4.57-9.27 7.41-3.19 3.13-6.61 7.91-8.69 12.16-1.89 3.85-3.79 9.41-4.24 12.36-0.44 2.96-1.14 5.54-1.55 5.75-0.41 0.22-0.71 1.4-0.65 2.64 0.1 2.16 0.13 2.15 0.9-0.25 0.68-2.12 0.8-1.89 0.76 1.5-0.02 2.2 0.3 6.02 0.71 8.5 0.42 2.48 1.51 6.07 2.43 8 0.92 1.93 3.46 6.35 5.64 9.83 2.21 3.55 5.5 7.27 7.46 8.47 1.92 1.17 5.3 3.18 7.5 4.48 2.2 1.29 6.48 3.05 9.5 3.92 3.02 0.87 7.98 1.7 11 1.86 3.02 0.15 8.2-0.29 11.5-0.98 3.3-0.68 8.02-2.14 10.5-3.23 2.48-1.09 7.65-4.93 11.5-8.55 4.78-4.49 8-8.59 10.17-12.93 1.75-3.51 3.7-9.3 4.35-12.87 0.9-4.99 0.9-8.25-0.01-14-0.75-4.71-2.55-10.26-4.85-14.91-2.52-5.11-5.38-8.99-9.21-12.5-3.05-2.8-7.55-6.1-10-7.34-2.45-1.24-6.7-2.92-9.45-3.74-2.75-0.82-8.6-1.47-13-1.45-4.86 0.03-10.16 0.75-13.5 1.84zm-303.5 10.77c-1.65 0.2-5.7 1.08-9 1.96-3.3 0.88-7.58 2.39-9.5 3.36-1.92 0.96-5.19 3.39-7.25 5.38-2.1 2.04-4.19 5.28-4.74 7.38-0.55 2.06-1 4.99-1 6.5-0.01 1.51 0.89 4.55 1.99 6.75 1.1 2.2 3.24 5.13 4.75 6.51 1.51 1.38 4.33 3.24 6.25 4.14 1.92 0.9 5.98 2.3 9 3.12 3.08 0.84 11.01 1.62 18 1.78 7.91 0.19 15.16-0.23 19.75-1.13 3.99-0.78 9.39-2.45 12-3.7 2.61-1.26 6.22-3.62 8.03-5.25 1.8-1.63 3.94-4.66 4.75-6.72 0.81-2.06 1.47-4.99 1.46-6.5 0-1.51-0.45-4.44-1-6.5-0.54-2.06-2.27-5.21-3.83-7-1.6-1.83-5.65-4.44-9.25-5.96-3.53-1.49-9.67-3.18-13.66-3.75-3.99-0.57-10.96-0.97-15.5-0.89-4.54 0.08-9.6 0.31-11.25 0.52zm-171.64 50.76c-0.2 0.19-2.72 0.61-5.61 0.95-2.89 0.34-8.51 1.56-12.5 2.7-3.99 1.15-8.15 2.36-9.25 2.69-1.1 0.34-4.93 2.04-8.5 3.78-3.58 1.75-9.64 5.37-13.47 8.06-3.83 2.69-9.94 7.82-13.58 11.39-3.63 3.57-8.42 8.98-10.64 12-2.22 3.02-5.66 8.65-7.65 12.5-1.98 3.85-4.77 10.15-6.21 14-1.43 3.85-3.03 9.25-3.55 12-0.53 2.75-1.2 6.35-1.51 8-0.31 1.65-0.56 7.95-0.57 14-0.01 6.05 0.49 13.93 1.12 17.5 0.62 3.57 2.3 10.1 3.74 14.5 1.43 4.4 4.41 11.38 6.61 15.5 2.21 4.13 5.24 9.3 6.74 11.5 1.5 2.2 5.82 7.32 9.6 11.38 3.78 4.06 9.79 9.48 13.37 12.06 3.57 2.57 9.2 6.16 12.5 7.96 3.3 1.81 9.15 4.43 13 5.81 3.85 1.39 10.6 3.32 15 4.3 5.31 1.17 12.2 1.77 20.5 1.77 8.3 0 15.19-0.6 20.5-1.77 4.4-0.98 11.15-2.89 15-4.26 3.85-1.36 9.7-3.95 13-5.74 3.3-1.8 9.15-5.64 13-8.53 3.85-2.9 9.27-7.68 12.05-10.63 2.77-2.94 6.91-7.83 9.18-10.85 2.28-3.02 5.9-8.87 8.05-13 2.16-4.12 4.92-10.43 6.15-14 1.22-3.57 2.65-8.75 3.17-11.5 0.53-2.75 1.21-6.35 1.53-8 0.31-1.65 0.55-8.18 0.53-14.5-0.03-6.32-0.3-12.62-0.6-14-0.3-1.37-0.82-4.07-1.14-6-0.32-1.93-1.5-6.43-2.62-10-1.12-3.57-4.05-10.55-6.53-15.5-2.47-4.95-6.32-11.48-8.55-14.5-2.24-3.02-7.04-8.43-10.67-12-3.64-3.57-9.75-8.7-13.58-11.39-3.83-2.69-9.9-6.31-13.47-8.06-3.58-1.74-7.4-3.45-8.5-3.79-1.1-0.34-4.48-1.35-7.5-2.23-3.02-0.88-7.98-2.07-11-2.64-3.02-0.57-10.29-1.21-16.14-1.42-5.85-0.2-10.8-0.22-11-0.04zm336.64 3.04c-4.4 0.74-11.15 2.43-15 3.76-3.85 1.33-10.15 4.48-14 6.99-3.85 2.52-8.84 6.31-11.08 8.43-2.25 2.12-6.22 6.78-8.82 10.35-2.61 3.57-6 9.2-7.54 12.5-1.54 3.3-3.63 8.7-4.65 12-1.42 4.57-1.87 9.22-1.88 19.5-0.03 11.44 0.32 14.57 2.27 20.5 1.27 3.85 3.91 10.15 5.88 14 1.97 3.85 5.61 9.48 8.08 12.5 2.48 3.02 6.36 7.07 8.63 9 2.26 1.93 5.46 4.45 7.11 5.6 1.65 1.16 5.7 3.46 9 5.11 3.3 1.65 9.15 3.95 13 5.11 3.85 1.16 10.83 2.41 15.5 2.78 6.29 0.49 10.71 0.22 17-1.04 4.67-0.95 11.87-3.11 16-4.82 4.12-1.71 8.85-3.92 10.5-4.92 1.65-1 5.96-4.4 9.58-7.57 3.62-3.16 8.49-8.23 10.83-11.25 2.34-3.02 6.01-9.1 8.16-13.5 2.15-4.4 4.58-11.15 5.4-15 0.82-3.85 1.5-10.94 1.51-15.75 0.01-4.81-0.7-12.24-1.58-16.5-0.88-4.26-2.93-10.68-4.56-14.25-1.63-3.57-4.8-9.2-7.04-12.5-2.24-3.3-6.91-8.7-10.38-12-3.47-3.3-9.71-7.91-13.86-10.25-4.44-2.49-11.38-5.25-16.81-6.68-5.09-1.33-12.4-2.66-16.25-2.94-3.86-0.28-10.59 0.1-15 0.84z"/>
		<path id="Path 12" class="s2" d="m856.85 155.25c-2.03 4.52-2.35 6.84-2.35 16.75 0 11.23 0.09 11.68 3.68 19 2.16 4.39 5.74 9.57 8.65 12.5 2.73 2.75 7.15 6.21 9.82 7.69 2.67 1.48 7.55 3.39 10.85 4.25 3.3 0.86 8.47 1.57 11.5 1.57 3.02 0 8.2-0.71 11.5-1.57 3.3-0.86 8.02-2.68 10.5-4.05 2.47-1.37 5.74-3.59 7.25-4.94 1.51-1.35 2.64-2.62 2.5-2.83-0.14-0.21-3.63 0.97-7.75 2.64-6.57 2.65-8.68 3.02-17 2.98-6.69-0.04-11.12-0.62-15-1.97-3.03-1.06-8.17-3.69-11.44-5.85-3.27-2.15-7.73-6.17-9.9-8.92-2.18-2.75-5-7.25-6.27-10-1.27-2.75-3.01-8.38-3.86-12.5-0.86-4.13-1.36-8.18-1.11-9 0.25-0.82 0.69-3.64 0.98-6.25 0.29-2.61 0.37-4.75 0.16-4.75-0.2 0-1.42 2.36-2.71 5.25zm-635.16 50.5c-0.82 2.06-2.3 6.68-3.29 10.25-1.28 4.65-1.79 10.05-1.79 19 0 8.84 0.52 14.4 1.77 19 0.97 3.57 3.27 9.65 5.11 13.5 1.84 3.85 5.64 10.04 8.43 13.75 2.79 3.71 8.12 9.26 11.83 12.33 3.71 3.07 11.25 7.78 16.75 10.47 5.5 2.69 12.93 5.69 16.5 6.67 4.97 1.36 10.15 1.77 22 1.74 14.22-0.04 16.14-0.26 23.25-2.75 4.26-1.49 10.34-4.02 13.5-5.62 3.16-1.59 7.66-4.29 10-6 2.34-1.7 4.14-3.34 4-3.64-0.14-0.3-3.85 0.55-8.25 1.89-4.4 1.34-11.37 3.02-15.5 3.73-4.12 0.71-12.23 1.28-18 1.25-7.17-0.03-13.35-0.73-19.5-2.21-5.06-1.22-13.37-4.31-19-7.07-5.5-2.7-12.7-7.1-16-9.78-3.3-2.68-8.38-7.77-11.3-11.32-2.91-3.54-7.08-10.04-9.25-14.44-2.18-4.4-4.92-11.6-6.1-16-1.7-6.38-2.16-11.08-2.24-23.25-0.06-8.38-0.41-15.25-0.77-15.25-0.37 0-1.34 1.69-2.15 3.75zm256.07 14c-0.84 0.96-2.44 3.55-3.56 5.75-1.11 2.2-2.59 6.93-3.27 10.5-0.97 5.08-0.99 7.81-0.06 12.5 0.65 3.3 2.3 8.36 3.66 11.25 1.36 2.89 4.61 7.41 7.22 10.05 2.61 2.64 7.23 6.02 10.25 7.51 3.02 1.49 8.2 3.15 11.5 3.7q6 0.99 11.25-0.01c2.89-0.55 7.56-2.01 10.38-3.25 2.82-1.24 5.63-2.82 6.25-3.51 0.85-0.95 0.76-1.18-0.38-0.92-0.83 0.19-3.52 0.92-6 1.62-2.73 0.77-7.84 1.11-13 0.86-6.73-0.33-9.64-0.99-14-3.17-3.02-1.52-7.86-5.09-10.74-7.94-2.88-2.86-6.33-7.44-7.67-10.19-1.34-2.75-2.87-7.7-3.4-11-0.54-3.38-0.61-8.4-0.16-11.5 0.44-3.03 1.45-7.41 2.25-9.75 0.8-2.34 1.35-4.25 1.23-4.25-0.12 0-0.9 0.79-1.75 1.75zm169.81 1.5c-0.81 1.24-2.49 4.5-3.74 7.25-1.81 3.99-2.28 6.81-2.3 14-0.02 7.97 0.33 9.75 3.02 15.5 1.68 3.57 5.05 8.68 7.5 11.34 2.57 2.79 6.99 6.06 10.45 7.75 3.3 1.6 8.48 3.38 11.5 3.96 3.62 0.69 7.38 0.73 11 0.11 3.02-0.52 7.75-1.88 10.5-3.03 2.75-1.14 5.9-3.01 7-4.16l2-2.08c-10.84 3.84-13.74 4.19-21 3.91-7.48-0.29-10.02-0.84-15-3.27-3.3-1.61-8.14-5.09-10.75-7.73-2.61-2.64-6.09-7.61-7.72-11.05-2.02-4.23-3.17-8.51-3.57-13.25-0.45-5.2-0.12-8.87 1.29-14.25 1.03-3.99 1.75-7.25 1.59-7.25-0.17 0-0.96 1.01-1.77 2.25zm127.34 16.5c-0.58 1.51-1.7 5.22-2.49 8.25-0.79 3.03-1.43 7.41-1.43 9.75 0.01 2.34 0.51 6.61 1.12 9.5 0.61 2.89 2.61 8.18 4.45 11.75 1.97 3.83 5.62 8.66 8.89 11.75 3.05 2.89 8.36 6.6 11.8 8.24 3.63 1.74 8.98 3.32 12.75 3.77 3.58 0.43 9.42 0.43 13 0.02 3.58-0.42 9.2-2.03 12.5-3.57 3.3-1.54 8.15-4.81 10.77-7.26 2.62-2.45 4.65-4.57 4.5-4.71-0.15-0.14-3.19 1.08-6.77 2.72-3.58 1.63-9.65 3.46-13.5 4.05-5.08 0.79-8.92 0.78-14-0.02-3.85-0.62-9.92-2.51-13.5-4.22-4.12-1.97-8.72-5.33-12.56-9.19-3.67-3.67-7.33-8.65-9.26-12.58-1.76-3.57-3.69-8.98-4.29-12-0.59-3.03-0.93-8.54-0.74-12.25 0.19-3.72 0.23-6.75 0.08-6.75-0.15 0-0.74 1.24-1.32 2.75zm165.19-1c-0.52 0.96-1.66 4.45-2.53 7.75-0.87 3.3-1.58 8.47-1.58 11.5 0 3.02 0.71 8.2 1.57 11.5 0.86 3.3 2.77 8.2 4.25 10.88 1.48 2.69 4.83 7.08 7.44 9.75 2.86 2.93 7.64 6.27 12 8.39 4.67 2.26 9.56 3.78 13.75 4.27 3.58 0.41 9.2 0.46 12.5 0.1 3.43-0.36 8.78-1.95 12.5-3.7 3.58-1.68 8.48-4.78 10.9-6.88 2.41-2.09 5.31-5.16 6.43-6.81 1.92-2.81 1.93-2.9 0.11-1.36-1.07 0.9-4.19 2.81-6.94 4.25-2.75 1.44-7.48 3.28-10.5 4.1-3.02 0.82-8.2 1.49-11.5 1.5-3.3 0.01-8.7-0.69-12-1.55-3.3-0.86-8.2-2.77-10.88-4.25-2.68-1.48-6.74-4.49-9.01-6.69-2.27-2.2-5.52-6.02-7.23-8.5-1.71-2.48-4.18-7.43-5.49-11-1.88-5.11-2.39-8.48-2.39-15.75 0-5.09-0.1-9.25-0.22-9.25-0.12 0-0.65 0.79-1.18 1.75zm-82.89 82c-2.46 5.21-2.71 6.83-2.71 17.25 0 10.98 0.16 11.82 3.35 18.5 1.93 4.05 5.57 9.32 8.64 12.5 2.91 3.02 7.48 6.71 10.15 8.19 2.67 1.48 7.56 3.39 10.86 4.25 3.3 0.86 8.48 1.57 11.5 1.57 3.02 0 8.2-0.71 11.5-1.57 3.3-0.86 8.18-2.77 10.84-4.25 2.67-1.48 5.82-3.72 7-4.99 2.13-2.26 2.06-2.26-4.34 0.41-4.9 2.04-8.71 2.82-15.5 3.16-6.72 0.33-10.64-0.01-15.5-1.36-3.81-1.06-9.4-3.75-13.5-6.5-4.63-3.1-8.4-6.67-11.15-10.55-2.29-3.22-5.04-8.11-6.12-10.86-1.08-2.75-2.48-8.04-3.1-11.75-0.62-3.71-0.94-7.09-0.72-7.5 0.23-0.41 0.68-2.89 1-5.5 0.33-2.61 0.8-5.2 1.05-5.75 0.26-0.55 0.24-1-0.04-1-0.28 0-1.73 2.59-3.21 5.75zm-301.07 5c-0.08 1.79 0.46 4.71 1.19 6.5 0.74 1.79 2.87 4.54 4.75 6.12 1.88 1.58 5.22 3.78 7.42 4.88 2.2 1.1 7.15 2.64 11 3.43 3.85 0.78 11.95 1.41 18 1.4 6.79-0.02 13.3-0.64 17-1.62 3.3-0.88 8.02-2.45 10.5-3.51 2.48-1.05 5.62-3.06 7-4.46 1.37-1.4 1.94-2.53 1.25-2.52-0.69 0.02-3.05 0.93-5.25 2.03-2.2 1.1-6.81 2.67-10.25 3.49-3.8 0.9-11.16 1.48-18.75 1.48-6.88 0-15.42-0.62-19-1.37-3.58-0.74-8.75-2.47-11.5-3.84-2.75-1.36-6.69-4.45-8.75-6.87-2.06-2.41-3.91-5.29-4.11-6.39-0.2-1.1-0.43-0.54-0.5 1.25zm-441.41 23.42c-1.44 2.38-8 15.35-14.57 28.83-6.57 13.48-15.33 32.82-19.47 43-4.14 10.18-9.64 24.57-12.22 32-2.59 7.43-6.63 19.8-8.98 27.5-2.35 7.7-6.09 21.2-8.3 30-2.21 8.8-5.61 24.1-7.55 34-1.94 9.9-4.65 25.87-6.03 35.5-1.38 9.62-3.21 24.92-4.06 34-0.86 9.08-1.74 22.8-1.95 30.5-0.22 7.7 0 19.17 0.48 25.5 0.48 6.33 1.59 16.23 2.46 22 0.87 5.77 2.94 15.9 4.59 22.5 1.66 6.6 4.6 16.27 6.55 21.5 1.94 5.23 5.46 13.55 7.81 18.5 2.35 4.95 7.87 14.4 12.28 21 4.4 6.6 11.99 16.23 16.87 21.4 4.87 5.16 12.46 12.27 16.86 15.8 4.4 3.52 11.15 7.96 15 9.86 4.54 2.24 9.11 3.66 13 4.04 5.67 0.56 6.49 0.35 15-3.94 4.95-2.5 11.48-6.74 14.5-9.43 3.03-2.68 6.97-7.1 8.77-9.8 1.8-2.71 3.28-6.06 3.28-7.43 0.01-1.38-0.79-3.22-1.77-4.11-0.98-0.89-4.93-3.43-8.78-5.65-3.85-2.22-11.5-7.6-17-11.96-5.5-4.37-13.82-11.98-18.5-16.93-4.67-4.95-11.06-12.57-14.18-16.93-3.12-4.35-8.01-11.97-10.86-16.92-2.86-4.95-6.9-12.83-8.99-17.5-2.1-4.67-5.45-13.23-7.46-19-2.01-5.77-4.94-15.9-6.53-22.5-1.58-6.6-3.83-18.3-5.01-26-1.56-10.26-2.28-20.81-2.68-39.5-0.33-15.59-0.09-30.94 0.61-39.5 0.64-7.7 2.26-21.65 3.6-31 1.34-9.35 4.05-24.88 6.02-34.5 1.97-9.62 5.64-25.6 8.15-35.5 2.51-9.9 7.02-26.55 10.02-37 3-10.45 9.17-31.77 13.72-47.38 4.55-15.61 8.19-28.58 8.11-28.83-0.09-0.24-1.34 1.5-2.79 3.88zm564.72 60.58c-0.87 2.06-2.55 7.13-3.75 11.25-1.73 5.96-2.17 10.06-2.15 20 0.03 9.82 0.51 14.16 2.24 20.25 1.22 4.26 3.38 10.11 4.81 13 1.44 2.89 5.15 8.6 8.25 12.69 3.11 4.09 8.57 9.86 12.15 12.83 3.58 2.96 11 7.59 16.5 10.28 5.5 2.68 12.7 5.62 16 6.53 3.3 0.91 11.4 1.88 18 2.15 8.59 0.36 14.13 0.07 19.5-1.03 4.12-0.84 11.77-3.38 17-5.64 5.23-2.26 11.86-5.9 14.75-8.09 2.89-2.18 5.14-4.18 5-4.44-0.14-0.26-2.5 0.37-5.25 1.4-2.75 1.02-9.5 2.86-15 4.07-7.02 1.55-13.42 2.22-21.5 2.24-8.58 0.02-13.79-0.53-20.5-2.18-4.95-1.22-13.05-4.19-18-6.59-4.95-2.41-12.13-6.76-15.95-9.68-3.82-2.91-9.35-8.22-12.27-11.79-2.93-3.57-6.86-9.43-8.73-13-1.87-3.57-4.64-10.55-6.15-15.5-2.49-8.2-2.74-10.48-2.82-25.75-0.04-9.21-0.19-16.75-0.32-16.75-0.13 0-0.95 1.69-1.81 3.75zm-145.64 142.77c-0.23 0.24-13.67 0.51-29.86 0.62-16.2 0.11-37.55 0.51-47.45 0.89-14.32 0.54-19.74 1.17-26.5 3.04-4.97 1.38-10.79 3.86-14 5.97-3.02 1.99-7.19 5.5-9.25 7.79-2.66 2.96-3.76 5.11-3.79 7.42-0.03 1.79 0.53 3.75 1.25 4.36 0.71 0.61 2.64 1.38 4.29 1.71 1.65 0.32 7.5-0.07 13-0.87 5.5-0.81 15.85-1.92 23-2.46 7.15-0.55 25.15-1.32 40-1.72 14.85-0.4 49.5-0.74 77-0.75 27.5-0.01 69.12 0.33 92.5 0.75 23.37 0.43 49.25 0.99 57.5 1.26 8.25 0.27 21.75 0.71 30 0.98 8.25 0.27 21.75 0.97 30 1.55 8.25 0.58 18.83 1.73 23.5 2.56 4.67 0.83 12.33 2.61 17 3.95 4.67 1.34 12.77 4.1 18 6.12 5.23 2.03 13.33 6.26 18 9.39 4.67 3.14 12.55 9.21 17.5 13.5 4.95 4.29 13.73 12.56 19.5 18.37 5.77 5.82 14.96 15.52 20.41 21.57 5.45 6.04 15.78 18.18 22.95 26.98 7.17 8.8 20.26 24.77 29.09 35.49 8.83 10.71 20.71 24.89 26.41 31.5 5.7 6.6 15.82 17.86 22.5 25.01 6.67 7.15 15.91 16.6 20.52 21 4.61 4.4 11.13 10.21 14.5 12.91 3.37 2.7 8.59 6.06 11.62 7.47 4.53 2.11 7.01 2.57 14.1 2.59 7.88 0.03 9.17-0.26 15.46-3.47 3.97-2.02 7.52-4.62 8.4-6.15 1.45-2.5 1.38-2.87-1.17-6.5-1.48-2.12-8.01-9.52-14.5-16.44-6.48-6.92-21.06-22.22-32.39-34-11.33-11.78-25.97-27.26-32.52-34.41-6.55-7.15-23.15-25.59-36.89-40.98-13.75-15.39-31.02-34.52-38.38-42.5-7.37-7.99-20.87-21.91-30-30.93-9.14-9.03-19.99-19.4-24.11-23.05-4.13-3.65-10.42-8.28-14-10.29-3.58-2.02-10.1-5.24-14.5-7.16-4.4-1.93-11.38-4.38-15.5-5.45-4.13-1.08-11.1-2.42-15.5-2.98-4.4-0.56-13.17-1.27-19.5-1.58-6.33-0.3-25.67-0.82-43-1.15-17.33-0.34-32.63-0.81-34-1.07-1.38-0.25-44.86-0.63-96.64-0.85-51.77-0.22-94.32-0.22-94.55 0.01z"/>
		<path id="Path 13" class="s0" d="m299 172.07c-2.48 0.5-7.2 2.23-10.5 3.85-3.3 1.63-8.14 5.01-10.75 7.52-2.61 2.51-6.12 6.7-7.79 9.31-1.67 2.61-3.99 7.9-5.15 11.75-1.7 5.64-2.01 8.74-1.63 16 0.38 6.97 1.1 10.35 3.21 15 1.51 3.3 4.42 8.25 6.49 11 2.06 2.75 6.64 6.94 10.18 9.32 3.54 2.37 9.59 5.25 13.44 6.39 5.56 1.64 8.75 1.97 15.5 1.58 5.07-0.3 10.72-1.34 14-2.58 3.02-1.15 7.98-3.92 11-6.15 3.02-2.23 7.32-6.42 9.55-9.31 2.22-2.89 5.08-7.95 6.35-11.25 1.39-3.61 2.52-9.18 2.83-14 0.37-5.66 0.03-9.9-1.14-14.5-0.92-3.57-3.11-8.92-4.88-11.88-1.76-2.96-5.04-7.24-7.28-9.5-2.23-2.27-6.73-5.56-10-7.32-3.26-1.76-7.95-3.82-10.43-4.58-2.48-0.76-7.65-1.42-11.5-1.47-3.85-0.05-9.02 0.32-11.5 0.82zm275.59 147.18c0.08 3.44 0.2 7.04 0.28 8 0.12 1.62 2.04 1.75 25.13 1.75h25c0-14.44-0.29-16-1.5-16-1.15 0-1.56 1.47-1.75 6.25l-0.25 6.25-43.5 0.5c0-12.06-0.26-13-1.78-13-1.52 0-1.75 0.88-1.63 6.25zm181.41 55.84c-3.02 0.51-8.42 2.35-12 4.1-3.78 1.84-8.85 5.5-12.1 8.74-3.07 3.06-6.74 7.82-8.14 10.57-1.4 2.75-3.33 7.7-4.28 11-1.26 4.37-1.6 8.18-1.25 14 0.28 4.54 1.39 10.38 2.58 13.5 1.14 3.02 3.61 7.75 5.47 10.5 1.86 2.75 6.05 7.15 9.3 9.78 3.26 2.63 8.4 5.71 11.42 6.84 3.03 1.14 8.42 2.51 12 3.06 4.59 0.7 8.41 0.66 13-0.16 3.58-0.64 9.2-2.44 12.5-4 3.3-1.56 8.25-4.83 11-7.26 2.75-2.44 6.56-6.87 8.47-9.85 1.91-2.97 4.27-8 5.25-11.16 1.05-3.4 1.78-8.91 1.79-13.5 0.01-4.26-0.72-10.23-1.61-13.25-0.89-3.02-2.77-7.52-4.17-10-1.4-2.48-4.17-6.23-6.14-8.34-1.97-2.12-5.61-5.24-8.09-6.95-2.47-1.7-7.2-4.14-10.5-5.41-3.3-1.28-8.92-2.51-12.5-2.73-3.58-0.23-8.97 0-12 0.52z"/>
		<path id="Path 14" class="s1" d="m893.57 124.54c-2.71 0.84-4.84 1.73-4.75 1.99 0.1 0.26 3.67 0.28 7.93 0.05 4.95-0.27 9.74 0.12 13.25 1.06 3.02 0.81 7.71 2.68 10.41 4.17 2.7 1.48 4.81 3.14 4.69 3.69-0.12 0.55 0.82 1.25 2.09 1.55 1.27 0.3 4.46 3.22 7.09 6.5 2.63 3.27 5.7 8.42 6.82 11.45 1.13 3.03 2.39 7.97 2.8 11l0.75 5.5c1.29-8.13 1.13-12.25 0.38-16-0.66-3.3-2.63-8.65-4.37-11.88-1.74-3.23-5.3-7.85-7.91-10.25-2.61-2.4-7.34-5.59-10.5-7.07-4.67-2.2-7.44-2.76-14.75-2.99-5.96-0.19-10.67 0.23-13.93 1.23zm86.93 81.45c-2.2 0.42-6.03 1.67-8.5 2.77-2.48 1.11-5.4 2.72-6.5 3.58-1.82 1.43-1.55 1.43 3 0.07 2.78-0.84 8.66-1.48 13.25-1.46 5.64 0.04 10.07 0.69 14 2.08 3.16 1.12 7.96 3.48 10.67 5.25 2.7 1.77 6.67 5.24 8.81 7.72 2.15 2.47 5.23 7.2 6.86 10.5 1.62 3.3 3.28 8.11 3.68 10.68 0.4 2.57 1.14 4.37 1.64 4 0.49-0.37 0.67-4.06 0.38-8.18-0.29-4.2-1.53-10.14-2.82-13.5-1.68-4.39-3.93-7.62-8.38-12.05-3.35-3.33-8.12-6.98-10.59-8.12-2.48-1.15-6.86-2.59-9.75-3.2-2.89-0.62-6.71-1.08-8.5-1.02-1.79 0.06-5.05 0.45-7.25 0.88zm-168 1.41c-2.2 0.7-5.8 2.26-8 3.47-2.45 1.34-3.03 1.93-1.5 1.52 1.37-0.37 4.75-0.96 7.5-1.3 2.75-0.34 8.15-0.28 12 0.14 4.47 0.48 9.26 1.84 13.25 3.76 3.44 1.66 8.76 5.37 11.83 8.26 3.63 3.42 6.78 7.68 9.04 12.25 1.9 3.85 3.78 8.7 4.17 10.77 0.39 2.07 1.16 3.76 1.71 3.76 0.63-0.01 0.77-2.69 0.39-7.27-0.4-4.68-1.58-9.39-3.33-13.26-1.5-3.3-4.15-7.76-5.89-9.9-1.74-2.15-5.2-5.28-7.67-6.95-2.48-1.68-7.09-3.86-10.25-4.85-3.32-1.04-8.61-1.77-12.5-1.73-3.71 0.03-8.55 0.63-10.75 1.33zm81.5 81.97c-3.36 1.25-3.16 1.31 5 1.39 5.86 0.05 10.36 0.73 14.5 2.17 3.3 1.15 8.44 3.77 11.43 5.83 2.99 2.06 7.38 6.22 9.77 9.24 2.38 3.02 5.25 7.98 6.39 11 1.13 3.02 2.4 7.98 2.81 11l0.75 5.5c1.2-7.07 1.06-11.47 0.44-14.75-0.6-3.16-2.33-8.28-3.84-11.36-1.55-3.18-5.04-7.75-8-10.5-2.89-2.69-7.84-6.12-11-7.63-4.85-2.32-7.24-2.78-15.25-2.97-5.91-0.14-10.82 0.27-13 1.08z"/>
		<path id="Path 15" class="s8" d="m287.46 154.97c-4.38 1.49-9.87 3.91-12.21 5.37-2.34 1.46-5.19 3.45-6.34 4.41-1.14 0.96-4.34 4-7.09 6.75-2.76 2.75-6.53 7.25-8.39 10-1.86 2.75-3.39 5.56-3.4 6.25-0.02 0.96 0.61 1 2.72 0.17 1.51-0.6 7.02-1.33 12.25-1.63 8.11-0.46 9.87-0.88 12-2.85 1.38-1.28 4.52-3.7 7-5.39 2.48-1.68 6.86-3.74 9.75-4.56 2.89-0.82 5.46-1.83 5.71-2.24 0.25-0.41 0.02-2.32-0.51-4.25-0.54-1.93-1.24-5.75-1.57-8.5-0.32-2.75-0.9-5.28-1.27-5.62-0.38-0.34-4.27 0.6-8.65 2.09zm76.94 26.03c0.33 0.55-0.86 1.64-2.65 2.42-1.79 0.78-5.61 2.36-8.5 3.5-2.89 1.14-5.81 1.75-6.5 1.35-0.69-0.4 0.21 1.29 1.98 3.75 1.78 2.46 4 6.95 4.94 9.98 0.93 3.03 1.75 5.72 1.81 6 0.07 0.28 0.45 2.53 0.86 5 0.41 2.47 0.27 7.54-0.3 11.25-0.57 3.71-2.13 9.11-3.46 12-1.33 2.89-2.06 5.7-1.63 6.25 0.43 0.55 1.51 3.25 2.4 6 0.89 2.75 1.96 7.39 2.38 10.31 0.77 5.29 0.78 5.3 2.77 3.37 1.1-1.06 2.79-2.89 3.75-4.06 0.96-1.16 3.06-4.26 4.65-6.87 1.6-2.61 4.14-8.57 5.65-13.25 2.07-6.38 2.84-11 3.09-18.5 0.26-7.7-0.13-11.72-1.69-17.5-1.11-4.13-3.47-10.76-5.24-14.75-1.77-3.99-3.6-7.25-4.07-7.25-0.46 0-0.57 0.45-0.24 1zm260.57 146.75c0.02 0.97-5.66 1.24-25.22 1.22-13.89-0.01-25.02 0.23-24.75 0.54 0.28 0.31 11.53 0.53 25 0.48 13.76-0.04 24.94-0.49 25.5-1.02 0.55-0.51 0.65-1.28 0.22-1.7-0.43-0.42-0.76-0.21-0.75 0.48zm132.95 26.66c-0.23 0.22-1.77 0.63-3.42 0.9-1.65 0.28-5.02 0.97-7.5 1.54-2.47 0.57-6.31 1.85-8.53 2.84-2.22 1-6.5 3.34-9.5 5.22-3.01 1.87-8.62 6.65-12.47 10.62-4.95 5.1-8.23 9.68-11.18 15.6-2.29 4.6-4.09 8.49-4 8.63 0.1 0.15 3.56-0.63 7.68-1.73 4.13-1.1 9.53-2.19 12-2.43 3.87-0.37 4.92-0.99 7.5-4.46 1.65-2.22 4.8-5.43 7-7.14 2.2-1.71 5.8-3.93 8-4.93 2.2-0.99 5.35-2.29 7-2.88 1.65-0.58 4.46-1.32 6.25-1.63 3.07-0.53 3.21-0.74 2.58-3.81-0.36-1.79-0.7-6.29-0.75-10-0.04-3.71-0.12-6.75-0.16-6.75-0.05 0-0.27 0.18-0.5 0.41zm65.43 36.34c0.41 0.78-0.56 1.77-2.6 2.66-1.79 0.78-3.7 1.11-4.24 0.75-0.58-0.39-0.68-0.14-0.25 0.59 0.51 0.86-0.03 1.25-1.76 1.25-1.37 0-2.72 0.45-3 1-0.27 0.55-1.4 1-2.5 1-1.1 0-2 0.34-2.01 0.75 0 0.41 0.94 3.45 2.1 6.75 1.23 3.51 2.22 9.12 2.38 13.5 0.15 4.12-0.28 9.75-0.94 12.5-0.67 2.75-2.05 6.8-3.07 9-1.02 2.2-2.08 4.45-2.35 5-0.31 0.63 0.5 0.72 2.2 0.25 2.3-0.64 2.89-0.35 4.07 2 0.76 1.51 2.23 5.35 3.25 8.52 1.03 3.17 2.1 5.75 2.37 5.73 0.28-0.02 2.17-2.84 4.21-6.27 2.05-3.43 4.67-8.93 5.83-12.23 1.16-3.3 2.39-7.13 2.74-8.5 0.35-1.38 0.65-7.23 0.67-13 0.03-5.77-0.24-12.07-0.58-14-0.35-1.93-1.65-6.43-2.88-10-1.23-3.57-2.7-6.95-3.26-7.5q-1.03-1.01-0.38 0.25zm-432.1 21.16c-0.32 0.23-0.51 16.1-0.42 35.26l0.17 34.83h70l-0.49-70.51c-53.22 0-68.93 0.19-69.26 0.42zm16.75 75.84c9.63 0.16 25.6 0.16 35.5 0 9.9-0.17 2.03-0.3-17.5-0.3-19.52 0-27.62 0.13-18 0.3zm-66.15 4c0.93 2.06 3.03 5.77 4.67 8.25 1.64 2.48 3.43 5.02 3.98 5.66 0.55 0.64 3.52 3.79 6.59 7 3.08 3.21 7.58 7.46 10 9.43 2.43 1.98 6.21 4.7 8.41 6.04 2.2 1.34 5.24 2.99 6.75 3.66l2.75 1.21v-45h-44.85zm125.16 18.75v22.5c4.26-1.89 7.3-3.56 9.5-4.94 2.2-1.38 5.98-4.09 8.41-6.03 2.43-1.94 6.48-5.62 9-8.17 2.52-2.55 5.49-5.7 6.59-7.01 1.1-1.31 3.34-4.39 4.98-6.86 1.63-2.47 3.77-6.18 4.75-8.24l1.77-3.75h-45z"/>
		<path id="Path 16" class="s2" d="m569.02 324.62c0.81 0.89 2.27 2.01 3.23 2.5 1.2 0.6 1.76 0.49 1.78-0.37 0.01-0.69-1.11-1.81-2.5-2.5-1.39-0.69-2.86-1.25-3.26-1.25-0.41 0-0.07 0.73 0.75 1.62zm13.48 6.78c1.65 0.72 4.58 1.65 6.5 2.06 1.92 0.42 7.39 0.82 12.15 0.9 4.77 0.08 8.48-0.2 8.25-0.61-0.22-0.41 0.61-0.78 1.85-0.83 1.24-0.04 3.83-0.68 5.75-1.42 3.12-1.2 1.28-1.35-17-1.38-17.79-0.04-20.1 0.13-17.5 1.28z"/>
		<path id="Path 17" class="s9" d="m887.25 136.61c-1.24 0.22-2.25 0.73-2.24 1.14 0 0.41 3.6 7.84 8 16.5l7.99 15.75v20l10.09-0.5-0.41-20c14.15-27.63 15.97-32.05 15.06-32.65-0.68-0.45-2.59-0.83-4.24-0.84-2.81-0.02-3.29 0.59-7.71 9.73-2.59 5.37-5.37 10.66-6.17 11.76-0.8 1.1-1.7 1.77-2.01 1.5-0.3-0.28-2.77-5.45-5.48-11.5-4.55-10.14-5.16-11.01-7.78-11.14-1.57-0.07-3.86 0.04-5.1 0.25z"/>
		<path id="Path 18" class="s3" d="m600 325l-21.5 0.56c34.66 0.36 42.67 0.07 42.96-0.56 0.26-0.55 0.37-0.9 0.25-0.78-0.11 0.12-9.88 0.47-21.71 0.78zm-190.45 32.3c-4.98 1-9.73 1.98-10.55 2.18-0.82 0.2-1.61 0.4-1.75 0.44-0.14 0.05-0.59 0.25-1 0.46-0.41 0.22-1.75 0.72-2.96 1.12-1.7 0.56-2.23 1.53-2.25 4.12l-0.04 3.38c8.14-3.24 13.65-4.78 17.5-5.51 3.85-0.74 10.82-1.34 15.5-1.34 4.68-0.01 10.3 0.38 12.5 0.86 2.2 0.48 5.12 1.07 6.5 1.31 1.37 0.23 5.43 1.64 9 3.11 3.57 1.48 7.03 2.93 7.68 3.23 0.81 0.38 1.2-0.89 1.25-4.05 0.06-3.96-0.25-4.7-2.18-5.23-1.24-0.33-2.59-0.78-3-1-0.41-0.21-0.86-0.41-1-0.46-0.14-0.04-0.93-0.24-1.75-0.43-0.82-0.2-4.88-1.09-9-1.98-4.13-0.89-11.53-1.7-16.45-1.81-5.41-0.12-12.52 0.51-18 1.6zm-68.22 55.95c-0.43 0.69-0.88 1.93-1.01 2.75-0.2 1.3 2.83 1.5 22.22 1.5h22.45l0.01-5.5c-37.53 0-43.09 0.31-43.67 1.25zm125.67 1.5v2.75c41.82 0 45-0.21 45.01-1.5 0.01-0.82-0.55-2.07-1.24-2.77-0.95-0.94-6.69-1.26-22.52-1.25l-21.25 0.02z"/>
		<path id="Path 19" class="s5" d="m594.22 73.83c-1.26 0.28-4.63 1.16-7.5 1.96-2.87 0.8-5.67 1.81-6.22 2.25-0.56 0.44 0.77 1.08 3 1.45 2.2 0.37 7.04 1.98 10.75 3.59l6.75 2.92c8.14-3.81 12.97-5.53 16-6.29 3.02-0.75 5.05-1.61 4.5-1.91-0.55-0.29-3.25-1.28-6-2.19-2.75-0.91-8.15-1.79-12-1.97-3.85-0.18-8.03-0.09-9.28 0.19zm38.28 24.83c-4.4 2.54-8.11 4.78-8.25 4.98-0.14 0.2 2.49 4.07 5.84 8.61 3.36 4.54 8.31 12.64 11 18l4.91 9.75c2.34-8.14 3.02-14.21 3.01-18.75-0.01-5.42-0.66-10.22-1.92-14-1.05-3.16-2.77-7.44-3.82-9.5-1.05-2.06-2.1-3.74-2.34-3.73-0.24 0.01-4.03 2.1-8.43 4.64zm-74.87 1.84c-1.45 3.03-3.14 7.86-3.75 10.75-0.62 2.89-0.91 9.08-0.64 13.75 0.26 4.68 1 9.85 1.65 11.5l1.17 3c5.53-11.62 9.16-18.15 11.64-22 2.48-3.85 5.82-8.35 7.44-10l2.93-3c-5.87-4.03-9.48-6.17-11.82-7.35-2.34-1.18-4.64-2.15-5.12-2.15-0.48 0-2.05 2.47-3.5 5.5zm31.63 30.25c-5.46 5.36-12.75 13.35-16.21 17.75l-6.29 8c4.66 3.88 8.2 6.21 10.87 7.69 2.68 1.48 7.57 3.39 10.87 4.25 3.3 0.86 9.15 1.57 13 1.57 3.85 0.01 9.47-0.71 12.5-1.59 3.02-0.87 7.52-2.75 10-4.17 2.48-1.42 5.96-3.63 7.75-4.92l3.25-2.33c-9.17-12.01-16.6-20.11-22.42-25.75-5.82-5.64-11.21-10.25-11.99-10.25-0.77 0-5.87 4.39-11.33 9.75zm-198.81 315.75c0 19.8 0.13 28.13 0.3 18.5 0.16-9.62 0.16-25.82 0-36-0.16-10.18-0.3-2.3-0.3 17.5zm71 0.5c0 19.52 0.13 27.4 0.3 17.5 0.16-9.9 0.16-25.87 0-35.5-0.17-9.62-0.3-1.52-0.3 18zm-71.25 61.75c-0.11 12.24 0.14 22.43 0.55 22.66 0.41 0.22 0.63-6.42 0.49-14.75-0.14-8.34-0.39-18.53-0.55-22.66-0.16-4.12-0.38 2.51-0.49 14.75zm70.8 0.45c-0.28 12.49-0.16 22.39 0.25 22 0.41-0.38 0.63-10.6 0.5-22.7l-0.25-22zm299.5-21.48c1.65 0.22 4.8 0.22 7 0.01 2.2-0.22 0.85-0.4-3-0.4-3.85-0.01-5.65 0.17-4 0.39z"/>
		<path id="Path 20" class="s4" d="m567.65 86.75l-2.72 2.75c15.17 9.3 20.1 12.22 20.75 12.5 0.72 0.31-0.83 2.89-4 6.67-2.85 3.39-6.19 7.44-7.42 9-1.23 1.56-4.95 8.23-8.26 14.83-3.32 6.6-6.01 12.68-5.99 13.5 0.02 0.82 0.91 2.63 1.99 4 1.08 1.38 1.97 1.94 1.98 1.25 0.01-0.69 0.59-1.81 1.28-2.5 0.69-0.69 4.24-4.85 7.88-9.25 3.64-4.4 9.3-10.47 12.58-13.5 3.28-3.03 7.94-7.17 10.37-9.21l4.41-3.7c10.85 8.98 16.92 14.65 20.5 18.38 3.58 3.73 7.17 7.52 8 8.42 0.83 0.89 3.19 3.99 5.25 6.87 3.19 4.46 3.98 5.05 5.31 3.99 0.85-0.69 1.78-2.15 2.07-3.25 0.31-1.22-1.52-6.1-4.7-12.5-2.86-5.78-7.22-13.42-9.68-17-2.47-3.58-6.34-8.38-8.62-10.69l-4.13-4.18c13.17-8.29 18.35-11.26 20-11.94l3-1.26c-5.5-5.47-6.8-5.97-10.75-5.95-2.61 0.01-8.24 1.18-12.5 2.6-4.26 1.42-8.76 3.22-10 4-1.24 0.78-2.81 1.43-3.5 1.44-0.69 0.02-3.5-1.15-6.25-2.59-2.75-1.43-7.47-3.25-10.5-4.03-3.02-0.77-7.33-1.41-9.57-1.41-3.1 0.01-4.71 0.66-6.78 2.76zm-62.15 119.15c-1.1 0.39-4.02 1.65-6.5 2.8-2.48 1.15-6.44 4.27-8.8 6.94-2.37 2.67-5.12 7.11-6.12 9.86-1 2.75-1.9 7.93-2 11.5-0.09 3.57 0.47 8.3 1.24 10.5 0.78 2.2 2.76 6.03 4.4 8.5 1.64 2.48 5.07 5.96 7.63 7.75 2.56 1.79 6.56 3.89 8.9 4.68 2.53 0.85 7.28 1.34 11.75 1.2 4.95-0.16 9.03-0.92 12-2.26 2.48-1.11 6.38-3.78 8.68-5.94 2.3-2.16 5.28-5.95 6.61-8.43 1.33-2.47 2.75-5.85 3.15-7.5 0.4-1.65 0.69-5.93 0.64-9.5-0.06-4.74-0.77-7.99-2.63-12-1.41-3.03-4.22-7.24-6.25-9.37-2.04-2.13-6.4-5.16-9.7-6.75-5.07-2.43-7.17-2.86-13.5-2.78-4.12 0.05-8.4 0.42-9.5 0.8zm166 1.95c-3.99 1.88-7.61 4.63-10.8 8.23-2.79 3.15-5.5 7.52-6.47 10.42-0.92 2.75-1.65 7.93-1.63 11.5 0.03 5.05 0.68 7.84 2.91 12.5 1.58 3.3 4.93 8.04 7.43 10.53 2.9 2.88 6.75 5.38 10.56 6.85 4.96 1.91 7.3 2.24 13.5 1.85 5.42-0.34 8.96-1.2 12.75-3.1 2.89-1.45 6.83-4.2 8.75-6.13 1.92-1.93 4.72-5.86 6.21-8.75 2.34-4.54 2.71-6.47 2.75-14.25 0.03-7.39-0.38-9.89-2.29-14-1.29-2.75-4.44-6.97-7-9.38-2.57-2.41-6.47-5.32-8.67-6.47-3.02-1.56-6.22-2.14-13-2.34-8.09-0.24-9.61 0.01-15 2.54zm-87.5 92.49c-3.02 0.67-7.52 2.18-10 3.36-2.48 1.18-5.96 3.75-7.75 5.72-2.57 2.84-3.26 4.46-3.28 7.83-0.03 2.95 0.66 5.13 2.25 7.15 1.25 1.59 4.08 3.94 6.28 5.22 2.2 1.29 7.15 3.01 11 3.84 3.85 0.83 7.67 1.48 8.5 1.45 0.83-0.03-0.98-0.89-4-1.92-3.02-1.03-6.96-2.12-8.75-2.43-1.82-0.31-4.89-2.15-7-4.18-2.06-1.99-3.08-3.38-2.25-3.1 0.83 0.29 2.29 0.8 3.25 1.12 1.55 0.53 1.75-0.15 1.75-5.9 0-6.15 0.12-6.49 2.25-6.25 2.07 0.23 2.25 0.76 2.25 6.5v6.25h42.5c0.04-12.3 0.12-12.49 2.52-12.25 2.37 0.24 2.49 0.58 2.73 7.77 0.14 4.14 0.14 7.97 0 8.5-0.14 0.54-1.26 0.97-2.5 0.96-1.24-0.01-4.27 0.71-6.75 1.59-2.48 0.89-9 1.99-14.5 2.44l-10 0.82c17.05-0.53 22.67-0.87 23.5-1.09 0.83-0.21 3.52-1.01 6-1.76 2.48-0.75 5.94-2.29 7.69-3.42 1.76-1.13 3.9-3.07 4.75-4.31 0.86-1.24 1.86-4.16 2.22-6.5 0.51-3.31 0.21-5.02-1.39-7.75-1.33-2.28-3.91-4.43-7.41-6.18-2.95-1.47-7.84-3.11-10.86-3.65-3.02-0.53-10.45-0.98-16.5-1.01-6.05-0.02-13.48 0.51-16.5 1.18z"/>
		<path id="Path 21" class="s6" d="m298.75 151.74c-1.7 0.16-2.58 0.74-2.31 1.51 0.24 0.69 0.7 3.27 1.02 5.75 0.31 2.47 1 6.07 1.53 8l0.96 3.5c12.05 0.1 17.35 0.49 19.55 0.91 2.2 0.43 5.57 1.44 7.5 2.23 1.93 0.8 5.3 2.66 7.5 4.13 2.2 1.48 6.02 4.63 8.5 7 2.48 2.37 4.61 4.29 4.75 4.27 0.14-0.02 2.61-0.98 5.5-2.12 2.89-1.14 6.71-2.72 8.5-3.5 2.93-1.28 3.14-1.64 2.12-3.67-0.63-1.24-4.11-5.2-7.75-8.81-3.64-3.6-7.97-7.4-9.62-8.45-1.65-1.04-5.93-3.35-9.5-5.12-3.57-1.78-8.07-3.5-10-3.84-1.93-0.33-4.4-0.88-5.5-1.22-1.1-0.34-6.05-0.67-11-0.72-4.95-0.06-10.24 0.01-11.75 0.15zm326.59 168.26c0 4.13 0.17 5.93 0.39 4 0.21-1.93 0.21-5.3 0-7.5-0.22-2.2-0.39-0.62-0.39 3.5zm134.17 34.63c-1.85 0.45-1.94 1.02-1.28 7.68 0.4 3.95 0.84 7.93 1 8.84 0.15 0.91 0.5 1.87 0.77 2.13 0.28 0.27 3.65 0.73 7.5 1.03 3.85 0.3 8.35 0.84 10 1.19 1.65 0.35 3.56 1.06 4.25 1.57 0.69 0.51 1.92 0.7 2.75 0.43 0.83-0.27 1.28-0.05 1 0.5-0.27 0.55 0.96 1.65 2.75 2.44 1.79 0.8 5.5 3.61 8.26 6.25 2.76 2.65 6.13 6.43 7.5 8.41 2.02 2.93 2.94 3.49 4.86 3 1.31-0.33 2.55-0.94 2.75-1.35 0.21-0.41 1.17-0.74 2.13-0.74 0.96 0.01 3.66-0.89 6-2 4.12-1.95 4.21-2.09 3-4.76-0.69-1.51-2.15-4.1-3.24-5.75-1.09-1.65-4.69-5.72-8-9.05-3.3-3.32-8.48-7.64-11.51-9.59-3.02-1.96-6.62-3.91-8-4.33-1.37-0.43-2.95-1.14-3.5-1.58-0.55-0.45-3.25-1.33-6-1.96-2.75-0.64-5.67-1.3-6.5-1.47-0.83-0.17-4.42-0.55-8-0.84-3.58-0.3-7.4-0.32-8.49-0.05zm-418.51 57.12c0 0.41 6.64 0.63 14.75 0.49 8.11-0.14 18.13-0.39 22.25-0.55 4.13-0.16-2.51-0.38-14.75-0.49-12.24-0.11-22.25 0.14-22.25 0.55zm133-0.06c4.13 0.16 14.14 0.41 22.25 0.55 8.11 0.14 14.75-0.08 14.75-0.49 0-0.41-10.01-0.66-22.25-0.55-12.24 0.11-18.87 0.33-14.75 0.49zm-107 6.05c3.03 0.2 8.2 0.2 11.5 0 3.3-0.2 0.83-0.36-5.5-0.36-6.32 0-9.02 0.16-6 0.36zm125 0c3.03 0.2 8.2 0.2 11.5 0 3.3-0.2 0.83-0.36-5.5-0.36-6.32 0-9.02 0.16-6 0.36zm-101.03 91.51l-0.04 21.25c8.97 3.35 14.05 4.85 17.07 5.5 3.03 0.65 10 1.33 15.5 1.51 5.93 0.2 13.06-0.24 17.5-1.09 4.13-0.78 10.31-2.32 13.75-3.42l6.25-2v-43h-70z"/>
		<path id="Path 22" class="s7" d="m889 128.08c-1.92 0.41-3.92 0.59-4.44 0.38-0.52-0.2-3 1.75-5.51 4.34-2.51 2.58-5.77 6.72-7.23 9.2-1.47 2.47-3.38 7.2-4.25 10.5-0.87 3.3-1.58 8.14-1.58 10.75 0.01 2.61 0.9 7.56 2 11 1.09 3.44 3.68 8.67 5.75 11.63 2.07 2.96 5.78 6.84 8.26 8.64 2.48 1.79 6.3 4 8.5 4.91 2.2 0.9 6.48 2.05 9.5 2.55 3.48 0.57 7.89 0.53 12-0.11 3.58-0.56 8.92-2.22 11.88-3.7 2.95-1.47 7.6-4.92 10.32-7.67 2.72-2.75 6.13-7.48 7.59-10.5 1.83-3.82 2.54-6.72 2.32-9.5-0.18-2.2-0.98-6.48-1.78-9.5-0.8-3.03-2.77-7.98-4.38-11-1.61-3.03-4.79-7.3-7.08-9.5-2.29-2.2-3.87-3.44-3.52-2.75 0.36 0.69 0.2 1.25-0.35 1.25-0.55 0-1.45 1.57-2 3.5-0.55 1.92-1.45 3.5-2 3.5-0.55 0-0.77 0.45-0.5 1 0.27 0.55 0.05 1-0.5 1-0.55 0-0.77 0.45-0.5 1 0.27 0.55 0.09 1.11-0.42 1.25-0.5 0.14-3.09 4.87-5.75 10.52-2.66 5.64-4.6 10.52-4.33 10.83 0.27 0.31 0.5 4.81 0.5 9.99v9.41c-6.59 0-9.06-0.23-9.75-0.52-0.91-0.37-1.17-3.17-0.95-10.25 0.29-9.7 0.28-9.76-4-18.42-2.46-4.96-4.73-8.4-5.3-8.01-0.59 0.4-0.7 0.18-0.25-0.56 0.41-0.68 0.19-2.38-0.5-3.77-0.69-1.39-1.59-2.51-2-2.5-0.41 0.02-0.52-0.42-0.25-0.97 0.27-0.55 0.05-1-0.5-1-0.55 0-1.48-1.69-2.07-3.75-0.59-2.06-0.77-3.98-0.4-4.25 0.37-0.28 1.64-0.6 2.82-0.73 1.18-0.13 3.34-0.36 4.79-0.5 1.46-0.15 2.48-0.05 2.28 0.23-0.2 0.27 0.17 1.4 0.82 2.5 0.65 1.1 1.09 2.34 0.97 2.75-0.11 0.41 0.32 0.75 0.96 0.75 0.64 0 0.86 0.34 0.49 0.75-0.37 0.41 0.01 1.76 0.83 3 0.83 1.24 1.28 2.25 1.01 2.25-0.27 0 0.17 0.68 1 1.5 0.83 0.82 1.27 1.95 1 2.5-0.27 0.55-0.05 1 0.5 1 0.55 0 0.77 0.45 0.5 1-0.27 0.55-0.05 1 0.5 1 0.55 0 0.77 0.45 0.5 1-0.27 0.55 0.17 1.22 1 1.5 0.83 0.27 1.73 0.5 2 0.5 0.27 0 0.95-1.57 1.5-3.5 0.55-1.93 1.45-3.5 2-3.5 0.55 0 0.77-0.45 0.5-1-0.27-0.55-0.05-1 0.5-1 0.55 0 0.77-0.45 0.5-1-0.27-0.55 0.06-0.99 0.75-0.97 0.69 0.01 0.93-0.32 0.53-0.75-0.4-0.43 0.39-2.58 1.75-4.78 1.36-2.2 2.14-4.35 1.72-4.78-0.41-0.43 0.38-0.81 1.75-0.86 1.38-0.05 3.29-0.04 4.25 0.02 0.96 0.07 1.75-0.11 1.75-0.38 0-0.28-1.91-1.59-4.25-2.93-2.34-1.33-7.06-3.13-10.5-4-3.44-0.86-8.84-1.5-12-1.4-3.16 0.09-7.33 0.5-9.25 0.91zm-633 59.11c-2.47 0.53-5.02 1.05-5.66 1.14-0.64 0.09-2.44 3.77-4 8.17-2.56 7.22-2.84 9.27-2.84 21 0 11.04 0.36 14.05 2.37 20 1.31 3.85 3.62 9.25 5.16 12 1.53 2.75 4.77 7.48 7.2 10.5 2.43 3.02 7.31 7.67 10.84 10.33 3.54 2.65 9.24 6.14 12.68 7.75 3.44 1.6 9.06 3.59 12.5 4.41 3.44 0.81 10.3 1.48 15.25 1.48 4.95 0 11.81-0.67 15.25-1.48 3.44-0.82 9.51-3.12 13.5-5.11 3.99-1.99 10.29-6.04 14-9 3.71-2.96 6.77-5.72 6.79-6.13 0.03-0.41-0.53-0.22-1.25 0.44-1.04 0.95-1.43 0.17-2.02-4-0.4-2.86-1.57-7.67-2.61-10.69-1.03-3.03-2.28-5.58-2.77-5.67-0.49-0.09-2.69 2.12-4.89 4.91-2.2 2.8-6.48 6.79-9.5 8.87-3.02 2.08-8.65 4.79-12.5 6.01-5.02 1.6-9.27 2.2-15 2.12-5.36-0.06-9.98-0.79-14-2.21-3.3-1.16-8.02-3.41-10.5-4.99-2.48-1.58-6.32-4.82-8.55-7.2-2.23-2.39-5.22-6.37-6.64-8.84-1.42-2.48-3.4-6.98-4.39-10-1.21-3.69-1.77-8.29-1.71-14 0.06-6.01 0.72-10.25 2.25-14.5 1.19-3.3 3.39-7.8 4.89-10 1.5-2.2 3.05-4.56 3.44-5.25 0.54-0.95-0.91-1.22-6.04-1.14-3.71 0.06-8.77 0.55-11.25 1.08zm549 25.5c-3.81 0.88-7.54 2.48-9 3.85-1.37 1.29-3.95 4.74-5.72 7.65-1.78 2.92-3.99 8.46-4.93 12.31-1.43 5.92-1.52 8.08-0.55 14 0.63 3.85 2.4 9.41 3.92 12.36 1.53 2.95 5.14 7.57 8.03 10.25 2.89 2.69 7.84 6.13 11 7.64 5.15 2.46 6.85 2.75 16.25 2.75 9.67-0.01 10.97-0.24 16.45-3 3.27-1.65 8.1-5.14 10.75-7.75 2.64-2.61 5.99-7.11 7.45-10 1.52-3.01 2.6-6.74 2.53-8.75-0.07-1.93-0.64-5.75-1.27-8.5-0.63-2.75-2.56-7.65-4.28-10.9-1.72-3.24-5.61-8.2-8.63-11.02-3.02-2.82-7.98-6.3-11-7.74-3.02-1.43-7.86-3.11-10.75-3.73-2.89-0.61-7.16-1.07-9.5-1.02-2.34 0.05-7.17 0.77-10.75 1.6zm167.5-0.7c-2.2 0.42-6.05 1.67-8.55 2.77-3.14 1.39-5.61 3.53-7.94 6.88-1.86 2.67-4.02 6.43-4.8 8.36-0.78 1.93-1.84 6.2-2.35 9.5-0.62 4.02-0.55 7.98 0.2 12 0.62 3.3 2.32 8.42 3.78 11.39 1.52 3.08 5.23 7.8 8.66 11.04 4.02 3.8 7.98 6.42 12 7.97 3.3 1.28 8.7 2.55 12 2.83 3.9 0.33 8.27-0.08 12.5-1.16 3.58-0.92 8.71-3.11 11.42-4.87 2.7-1.76 6.66-5.22 8.8-7.7 2.15-2.48 4.76-6.3 5.82-8.5 1.06-2.2 1.93-5.8 1.92-8 0-2.2-0.48-6.03-1.06-8.5-0.58-2.48-2.23-6.98-3.66-10-1.44-3.03-5.12-8.04-8.18-11.15-3.49-3.55-7.98-6.8-12.06-8.73-3.58-1.69-8.98-3.54-12-4.11-3.02-0.57-7.08-0.98-9-0.91-1.92 0.07-5.3 0.46-7.5 0.89zm-90.42 83.51c-2.79 2.2-6.26 5.57-7.7 7.5-1.43 1.92-3.68 5.75-4.99 8.5-1.43 2.99-2.64 7.81-3.01 12-0.45 5.03-0.15 8.83 1.05 13.5 0.93 3.57 2.63 8.07 3.78 10 1.15 1.92 3.94 5.43 6.19 7.8 2.26 2.36 5.9 5.35 8.1 6.64 2.2 1.29 6.48 3.07 9.5 3.96 3.02 0.89 7.98 1.62 11 1.62 3.02 0 7.98-0.72 11-1.6 3.02-0.88 7.71-3.02 10.42-4.76 2.7-1.74 6.66-5.18 8.79-7.66 2.13-2.48 4.76-6.41 5.83-8.75 1.08-2.34 1.96-6.16 1.97-8.5 0-2.34-0.68-6.84-1.5-10-0.83-3.16-2.71-8.11-4.17-11-1.46-2.89-4.95-7.54-7.75-10.34-2.8-2.8-7.45-6.29-10.34-7.75-2.89-1.46-7.84-3.33-11-4.15-3.36-0.87-9.14-1.39-13.91-1.25-7.86 0.23-8.36 0.39-13.26 4.24zm-503.08 67.67c-3.02 1.72-7.98 5.02-11 7.33-3.02 2.32-8.65 7.59-12.5 11.72-3.85 4.13-8.91 10.72-11.25 14.64-2.34 3.93-4.25 7.59-4.25 8.14 0 0.64 8 1 22 1 16.66 0 22.13-0.3 22.52-1.25 0.28-0.69 0.39-11.03 0.25-22.98l-0.27-21.73zm88.04 19.81l-0.04 23.02c35.67 0 44.19-0.38 44.5-1 0.27-0.55-1.41-4.22-3.75-8.16-2.34-3.93-7.67-10.79-11.85-15.25-4.18-4.45-10.93-10.39-15-13.2-4.07-2.82-8.84-5.87-10.61-6.78l-3.21-1.66zm-62.29-17.96c-4.26 1.09-9.1 2.66-10.75 3.49l-3 1.5v36h70c0.02-25.19 0.18-33.4 0.37-34.5 0.19-1.1 0.18-1.44-0.01-0.75-0.27 0.92-1.32 0.76-4.11-0.64-2.06-1.04-6.9-2.89-10.75-4.12-5.42-1.73-10.04-2.32-20.5-2.6-11.07-0.31-14.89-0.02-21.25 1.62zm314.25 30.68c-1.37 0.24-5.98 1.41-10.25 2.62l-7.74 2.19c-1.94 7.75-2.48 15.17-2.45 21.5 0.04 10.1 0.41 12.53 3.02 20 1.64 4.67 5.05 11.65 7.57 15.5 2.53 3.85 7.47 9.62 10.98 12.82 3.76 3.43 9.65 7.43 14.37 9.74 4.4 2.15 10.7 4.6 14 5.43 3.38 0.85 10.38 1.52 16 1.52 5.63 0 12.63-0.67 16-1.52 3.3-0.83 9.71-3.31 14.25-5.5 5.49-2.66 10.59-6.17 15.25-10.49l7-6.5c-3.63-10.47-5.21-14.52-5.84-15.75-0.94-1.83-1.68-2.12-3.91-1.56-1.51 0.38-5.27 3.41-8.35 6.75-3.13 3.38-8.21 7.46-11.5 9.24-3.25 1.76-8.6 3.9-11.9 4.76-3.3 0.86-8.25 1.57-11 1.57-2.75 0-7.59-0.68-10.75-1.51-3.16-0.83-8.11-2.7-11-4.17-2.89-1.46-7.42-4.73-10.08-7.25-2.66-2.52-6.24-6.83-7.97-9.58-1.72-2.75-3.94-7.59-4.92-10.75-1.05-3.41-1.78-8.92-1.79-13.5 0-4.27 0.71-10.23 1.59-13.25 0.87-3.03 2.45-6.97 3.51-8.75 1.05-1.79 1.57-3.49 1.16-3.78-0.41-0.29-1.2-0.46-1.75-0.37-0.55 0.09-2.12 0.36-3.5 0.59zm-381.66 29.31c-1.37 5.57-1.83 11.22-1.81 22 0.02 11.78 0.43 15.9 2.18 22 1.18 4.12 2.63 8.73 3.22 10.25l1.07 2.75h43v-64l-45.82-0.5zm129.66 25v32h43c1.66-4.27 3.11-8.88 4.29-13 1.73-6.08 2.14-10.27 2.17-22 0.03-10.49-0.44-16.51-1.71-21.75l-1.75-7.25h-46zm-115.5 37.74c6.6 0.18 16.95 0.18 23 0 6.05-0.17 0.65-0.32-12-0.32-12.65 0.01-17.6 0.15-11 0.32zm127 0c6.6 0.18 16.95 0.18 23 0 6.05-0.17 0.65-0.32-12-0.32-12.65 0.01-17.6 0.15-11 0.32z"/>
		<path id="Path 23" class="s0" d="m492 231v14c6.33 0 7-0.38 7-2q0-2-1.75-1.75c-1.57 0.22-1.75-0.82-1.75-10.25v-10.5c22.42-0.41 27.5-0.13 27.5 0.5 0 0.55 0.9 1 2 1 1.47 0 2-0.67 2-2.5v-2.5h-35zm171-7c0 1.95 0.58 1.99 22.25 1.73 20.22-0.24 22.27-0.42 22.5-2 0.23-1.6-1.48-1.73-22.25-1.73-21.83 0-22.5 0.06-22.5 2zm-160 18.5v14.5c3.49-0.75 11.36-0.98 19.75-0.99l15.25-0.01v-28h-35zm160-5c0 1.29 3.17 1.5 22.5 1.5 19.33 0 22.5-0.21 22.5-1.5 0-1.29-3.17-1.5-22.5-1.5-19.33 0-22.5 0.21-22.5 1.5zm-0.45 12.5c-0.3 0.55-0.32 1.45-0.05 2 0.27 0.55 1.29 0.81 2.25 0.58 0.96-0.24 10.86-0.46 22-0.5 17.06-0.07 20.33-0.32 20.75-1.58 0.43-1.3-2.44-1.5-21.95-1.5-13.94 0-22.66 0.38-23 1zm-66.38 54.5c-2.63 2.9-2.96 3.76-1.92 5.01 1.01 1.23 1.51 1.27 2.61 0.25 0.74-0.69 1.25-0.81 1.13-0.26-0.13 0.55-0.17 3.81-0.11 7.25 0.1 5.24 0.4 6.25 1.87 6.25 1.52 0 1.72-0.9 1.5-7-0.14-3.85 0.09-7.01 0.5-7.02 0.41-0.01 1.2 0.46 1.75 1.04 0.7 0.75 1.37 0.68 2.22-0.23 0.98-1.03 0.52-2.05-2.25-5.04-1.91-2.06-3.62-3.75-3.8-3.75-0.18 0-1.75 1.57-3.5 3.5z"/>
		<path id="Path 24" class="s1" d="m502.39 241.5c0.01 7.7 0.16 10.63 0.35 6.5 0.19-4.13 0.19-10.43 0-14-0.19-3.57-0.35-0.2-0.35 7.5z"/>
		<path id="Path 25" class="s10" d="m829.63 226.58c-3.1 5.18-5.97 9.24-6.38 9.02-0.41-0.23-3.23-4.28-6.25-9.01-3.02-4.72-5.84-8.59-6.25-8.59-0.41 0-2.57 1.24-4.79 2.75-2.22 1.51-4.02 3.09-4 3.5 0.02 0.41 3.42 5.02 7.54 10.25 4.13 5.22 7.5 9.95 7.5 10.5 0 0.55-3.15 5.72-7 11.5-3.85 5.77-7.01 10.84-7.03 11.25-0.02 0.41 1.78 1.65 3.99 2.75 2.21 1.1 4.17 1.77 4.35 1.5 0.18-0.27 2.89-4.66 6.01-9.75 3.12-5.09 5.91-9.25 6.18-9.25 0.27 0 3.2 4.27 6.5 9.5 3.3 5.23 6.34 9.5 6.75 9.5 0.41 0.01 2.55-1.19 4.75-2.65 2.2-1.46 4.11-2.81 4.25-3 0.14-0.19-3.37-5.19-7.79-11.1-4.42-5.91-7.79-11.31-7.5-12 0.3-0.69 3.46-5.75 7.04-11.25l6.5-10c-3.49-2.08-5.45-3.17-6.62-3.76-1.95-0.99-2.56-0.33-7.75 8.34z"/>
		<path id="Path 26" class="s8" d="m272.03 200.61c-0.76 1.59-1.94 4.91-2.63 7.39-0.7 2.53-1.1 8-0.91 12.5 0.3 6.95 0.85 8.97 4.18 15.41 2.53 4.9 5.53 8.89 8.83 11.76 2.75 2.39 7.25 5.43 10 6.76 2.75 1.32 6.13 2.68 7.5 3.02 1.38 0.34 4.98 0.86 8 1.17 3.59 0.36 7.76-0.03 12-1.13 3.58-0.93 8.3-2.61 10.5-3.73 2.2-1.12 6.6-4.79 9.79-8.15 3.18-3.36 5.76-6.56 5.72-7.11-0.04-0.58-2.35-0.27-5.54 0.75-3.01 0.96-8.73 2.03-12.72 2.38-4.08 0.35-10.31 0.12-14.25-0.53-3.85-0.63-9.81-2.49-13.25-4.13-3.46-1.64-8.64-5.31-11.59-8.22-2.94-2.89-6.59-7.73-8.12-10.75-1.53-3.03-3.44-8.65-4.23-12.5-0.8-3.85-1.56-7.17-1.68-7.39-0.13-0.21-0.85 0.91-1.6 2.5zm227.97 16.13c4.68 0.19 12.78 0.19 18 0.01 5.23-0.19 1.4-0.34-8.5-0.34-9.9 0-14.17 0.15-9.5 0.33zm38.4 25.26c0 7.97 0.15 11.35 0.34 7.5 0.19-3.85 0.19-10.38 0-14.5-0.19-4.13-0.34-0.98-0.34 7zm196.07 151.13c-1.67 1.85-4.26 5.39-5.75 7.87-1.49 2.48-3.28 6.98-3.97 10-0.69 3.02-1.22 7.52-1.17 10 0.04 2.48 0.45 6.52 0.9 9 0.45 2.48 1.99 6.73 3.42 9.45 1.43 2.72 4.66 7.22 7.18 10 2.93 3.23 7.06 6.29 11.5 8.49 6.08 3.02 8.01 3.47 15.92 3.74 5.93 0.2 10.71-0.21 14-1.19 2.75-0.83 7.83-3.41 11.3-5.75 3.46-2.33 6.27-4.35 6.25-4.49-0.03-0.14-3.31 0.02-7.3 0.35-4.73 0.39-9.68 0.08-14.25-0.88-3.85-0.8-9.64-2.76-12.86-4.34-3.39-1.66-8.07-5.2-11.1-8.38-2.87-3.02-6.2-7.41-7.38-9.75-1.19-2.34-2.84-6.84-3.67-10-0.82-3.16-1.5-8.45-1.49-11.75 0.01-3.3 0.49-7.8 1.06-10 0.58-2.2 0.92-4.39 0.75-4.87-0.17-0.48-1.68 0.65-3.34 2.5z"/>
		<path id="Path 27" class="s2" d="m486.33 237.75c-0.34 0.96-0.31 3.55 0.06 5.75 0.37 2.2 1.74 6.25 3.04 9 1.3 2.75 4.33 6.71 6.72 8.79 2.39 2.09 6.15 4.26 8.35 4.84 2.2 0.58 6.7 1.02 10 0.99 3.3-0.04 8.02-0.75 10.5-1.58 2.48-0.83 6.08-2.82 8-4.43 1.92-1.6 3.15-3.3 2.73-3.76-0.42-0.47-2.67-0.25-5 0.47-2.71 0.85-6.92 1.15-11.73 0.82-4.12-0.28-9.52-0.84-12-1.25-3.71-0.6-5.59-1.8-10.66-6.81-4.66-4.6-6.4-7.12-7.14-10.33-0.54-2.34-1.27-4.25-1.62-4.25-0.34 0-0.91 0.79-1.25 1.75zm171.89 4c0.29 3.17 1.64 7.99 3.02 10.75 1.38 2.75 4.13 6.46 6.13 8.25 2 1.79 5.32 3.95 7.38 4.8 2.18 0.9 6.69 1.55 10.75 1.54 3.96 0 8.96-0.72 11.5-1.64 2.48-0.9 6.08-2.91 8-4.47 1.92-1.55 3.28-3.08 3-3.39-0.27-0.31-3.87-0.05-8 0.59-5.68 0.87-9.26 0.87-14.75-0.02-3.99-0.64-9.16-2.07-11.5-3.17-2.34-1.11-5.94-2.01-8-2-2.9 0.01-3.75-0.38-3.77-1.74-0.01-0.96 0.43-2.2 0.97-2.75 0.64-0.65 0.3-2.99-0.96-6.75-1.07-3.16-2.47-5.75-3.12-5.75-0.82 0-1.02 1.71-0.65 5.75z"/>
		<path id="Path 28" class="s3" d="m495.37 231c0 5.78 0.17 8.03 0.37 5 0.2-3.03 0.2-7.75 0-10.5-0.2-2.75-0.37-0.28-0.37 5.5z"/>
		<path id="Path 29" class="s11" d="m975.11 217.8l-2.39 0.3 0.78 52.75c4.65 0.91 9.15 1.18 13 1.19 5.71 0.02 8-0.49 12.43-2.76 3.13-1.6 6.18-4.05 7.19-5.78 0.97-1.65 1.98-4.13 2.26-5.5 0.27-1.38 0.07-4.19-0.44-6.25-0.65-2.6-2.16-4.67-4.94-6.75l-4-3c3.91-2.35 5.49-4.63 6.12-6.75 0.62-2.06 0.84-5.44 0.5-7.5-0.41-2.45-1.66-4.61-3.62-6.25-1.65-1.38-4.01-2.75-5.25-3.05-1.24-0.3-6.08-0.64-10.75-0.75-4.67-0.11-9.58-0.06-10.89 0.1z"/>
		<path id="Path 30" class="s5" d="m706.97 250.75c0.02 0.95-4.89 1.3-20.72 1.48l-20.75 0.23c33.12 0.47 41.24 0.2 41.92-0.42 0.59-0.55 0.73-1.35 0.3-1.77-0.43-0.43-0.76-0.21-0.75 0.48zm-105.64 64.75c0 3.85 0.18 5.2 0.4 3 0.21-2.2 0.21-5.35-0.01-7-0.22-1.65-0.4 0.15-0.39 4z"/>
		<path id="Path 31" class="s12" d="m903 300.67l-3.5 0.37c-8.44 26.71-12.32 38.28-14.06 42.96-2.2 5.9-2.82 8.72-2.05 9.23 0.61 0.41 2.8 0.75 4.86 0.75l3.75 0.02 4.5-14.5c15.7 0 17.87 0.34 18.48 1.5 0.44 0.82 1.4 4.1 2.16 7.27 1.1 4.67 1.74 5.76 3.36 5.74 1.1-0.02 3.58-0.3 5.5-0.64l3.5-0.6c-7.27-23.46-10.89-35.22-12.72-41.27l-3.35-11c-5.37-0.16-8.51-0.04-10.43 0.17z"/>
		<path id="Path 32" class="s4" d="m511.4 258c0.33 0.55 4.31 0.99 8.85 0.98 4.54 0 8.92-0.45 9.75-0.98 1.02-0.66-1.8-0.97-8.85-0.98-6.64-0.01-10.14 0.34-9.75 0.98z"/>
		<path id="Path 33" class="s6" d="m491.4 231c0 7.97 0.15 11.35 0.34 7.5 0.19-3.85 0.19-10.38 0-14.5-0.19-4.13-0.34-0.97-0.34 7z"/>
		<path id="Path 34" class="s7" d="m303 176.94c-2.48 0.42-7.2 1.99-10.5 3.49-3.3 1.51-7.57 4-9.5 5.54-1.93 1.54-4.95 4.77-6.72 7.17-1.77 2.4-3.04 4.58-2.82 4.86 0.22 0.28 1.05 3.65 1.85 7.5 0.79 3.85 2.7 9.47 4.23 12.5 1.53 3.03 5.18 7.86 8.12 10.75 2.95 2.91 8.13 6.58 11.59 8.22 3.44 1.64 9.4 3.5 13.25 4.13 3.85 0.64 10.15 0.89 14 0.56 3.85-0.33 9.36-1.29 12.25-2.13 2.89-0.84 5.5-1.42 5.8-1.28 0.3 0.14 1.44-1.78 2.54-4.25 1.09-2.47 2.45-7.2 3.02-10.5 0.74-4.24 0.72-7.76-0.05-12-0.6-3.3-2.36-8.7-3.91-12-1.54-3.3-5.02-8.2-7.73-10.88-2.71-2.69-6.94-5.89-9.42-7.12-2.48-1.22-6.07-2.71-8-3.29-1.93-0.59-5.75-1.29-8.5-1.55-2.75-0.27-7.02-0.14-9.5 0.28zm370.5 58.81c6.05 0.17 16.17 0.17 22.5 0 6.33-0.18 1.38-0.32-11-0.32-12.38 0-17.55 0.14-11.5 0.32zm-159.5 20.99c4.67 0.19 12.1 0.19 16.5 0 4.4-0.18 0.58-0.33-8.5-0.33-9.08 0-12.68 0.15-8 0.33zm238.5 125.05c-2.75 0.95-7.02 2.91-9.5 4.36-4.15 2.42-4.6 3.08-5.74 8.49-0.69 3.22-1.25 8.34-1.26 11.36-0.01 3.02 0.67 8.09 1.49 11.25 0.83 3.16 2.48 7.66 3.67 10 1.18 2.34 4.51 6.73 7.38 9.75 3.03 3.18 7.71 6.72 11.1 8.38 3.22 1.58 9.01 3.53 12.86 4.34 4.36 0.91 9.64 1.26 14 0.93 5.54-0.43 7.47-1.02 9.28-2.85 1.25-1.26 3.58-4.78 5.17-7.8 1.6-3.02 3.47-8.65 4.15-12.5 1-5.61 0.99-8.29-0.02-13.5-0.69-3.57-2.42-8.75-3.83-11.5-1.42-2.75-4.64-7.17-7.16-9.83-2.53-2.65-6.39-5.87-8.59-7.14-2.2-1.27-6.48-3.04-9.5-3.93-3.02-0.89-8.42-1.6-12-1.58-3.58 0.03-8.75 0.82-11.5 1.77z"/>
		<path id="Path 35" class="s1" d="m534.37 242.5c0 5.5 0.17 7.53 0.37 4.5 0.2-3.03 0.2-7.53-0.01-10-0.2-2.47-0.37 0-0.36 5.5z"/>
		<path id="Path 36" class="s8" d="m506.37 242c0 5.78 0.17 8.03 0.37 5 0.2-3.03 0.2-7.75 0-10.5-0.2-2.75-0.37-0.28-0.37 5.5z"/>
		<path id="Path 37" class="s5" d="m513 231.74c3.58 0.19 9.88 0.19 14 0 4.13-0.19 1.2-0.34-6.5-0.35-7.7 0-11.07 0.16-7.5 0.35z"/>
		<path id="Path 38" class="s4" d="m507 242.5v10.5h27v-21h-27z"/>
		<path id="Path 39" class="s7" d="m983 233v7c6.59-0.02 9-0.36 9.6-0.77 0.61-0.4 1.62-1.74 2.25-2.98 0.63-1.24 1.15-3.15 1.15-4.25 0-1.1-0.9-2.9-2-4-1.41-1.41-3.33-2-6.5-2h-4.5zm0.16 22.86l-0.16 8.14c6.98 0 10.01-0.52 11.25-1.15 1.24-0.63 2.58-1.64 2.98-2.25 0.41-0.6 0.76-2.67 0.79-4.6 0.03-2.09-0.67-4.21-1.74-5.25-1.04-1.03-4.11-2.02-7.37-2.39l-5.6-0.64zm-80.52 63.87c-1.58 4.82-3.04 9.33-3.25 10.02-0.28 0.91 1.38 1.25 6.12 1.25 4.73 0 6.39-0.34 6.12-1.25-0.21-0.69-1.37-4.85-2.6-9.25-1.22-4.4-2.51-8.35-2.87-8.77-0.36-0.43-1.95 3.17-3.52 8z"/>
	</g>
</svg>